<?xml version="1.0" encoding="UTF-8" standalone="no"?>
<!-- Created with Inkscape (http://www.inkscape.org/) -->

<svg
   xmlns:dc="http://purl.org/dc/elements/1.1/"
   xmlns:cc="http://creativecommons.org/ns#"
   xmlns:rdf="http://www.w3.org/1999/02/22-rdf-syntax-ns#"
   xmlns:svg="http://www.w3.org/2000/svg"
   xmlns="http://www.w3.org/2000/svg"
   xmlns:sodipodi="http://sodipodi.sourceforge.net/DTD/sodipodi-0.dtd"
   xmlns:inkscape="http://www.inkscape.org/namespaces/inkscape"
   id="svg4520"
   version="1.1"
   inkscape:version="0.91 r13725"
   xml:space="preserve"
   width="990"
   height="405"
   viewBox="0 0 990 405"
   sodipodi:docname="proxy.svg"
   inkscape:export-filename="C:\Users\mmccool\Desktop\Smart Buildings\WoT_SS\proxy.png"
   inkscape:export-xdpi="90"
   inkscape:export-ydpi="90"><metadata
     id="metadata4526"><rdf:RDF><cc:Work
         rdf:about=""><dc:format>image/svg+xml</dc:format><dc:type
           rdf:resource="http://purl.org/dc/dcmitype/StillImage" /><dc:title></dc:title></cc:Work></rdf:RDF></metadata><defs
     id="defs4524" /><sodipodi:namedview
     pagecolor="#ffffff"
     bordercolor="#666666"
     borderopacity="1"
     objecttolerance="10"
     gridtolerance="10"
     guidetolerance="10"
     inkscape:pageopacity="0"
     inkscape:pageshadow="2"
     inkscape:window-width="1920"
     inkscape:window-height="1017"
     id="namedview4522"
     showgrid="false"
     fit-margin-top="0"
     fit-margin-left="0"
     fit-margin-right="0"
     fit-margin-bottom="0"
     inkscape:zoom="1.1919192"
     inkscape:cx="486.52472"
     inkscape:cy="205.64031"
     inkscape:window-x="-8"
     inkscape:window-y="-8"
     inkscape:window-maximized="1"
     inkscape:current-layer="g4528" /><g
     id="g4528"
     inkscape:groupmode="layer"
     inkscape:label="proxy"
     transform="matrix(0.9375,0,0,0.9375,0,-180)"><g
       id="g4530"><path
         d="m 0,192 1056,0 0,432 L 0,624 0,192 Z"
         style="fill:#ffffff;fill-opacity:1;fill-rule:nonzero;stroke:none"
         id="path4532"
         inkscape:connector-curvature="0" /></g><g
       id="g4534"
       transform="translate(1029.76,606.23999)"><path
         d="m 0,0 c 0,0.32 -0.32,0.8 -0.8,0.8 l -517.43999,0 c -0.47998,0 -0.79999,-0.48 -0.79999,-0.8 l 0,-356.32001 c 0,-0.47998 0.32001,-0.79999 0.79999,-0.79999 l 517.43999,0 c 0.48,0 0.8,0.32001 0.8,0.79999 L 0,0 Z m -1.6,-356.32001 0.8,0.80002 -517.43999,0 0.79999,-0.80002 0,356.32001 -0.79999,-0.8 517.43999,0 -0.8,0.8 0,-356.32001 z"
         style="fill:#385d8a;fill-opacity:1;fill-rule:nonzero;stroke:none"
         id="path4536"
         inkscape:connector-curvature="0" /></g><g
       id="g4538"
       transform="translate(824.15997,331.84)"><path
         d="m 0,0 c 0,-4.8 3.84,-8.64 8.64,-8.64 l 177.92,0 c 4.96,0 8.8,3.84 8.8,8.64 l 0,257.60001 c 0,4.79998 -3.84,8.79998 -8.8,8.79998 l -177.92,0 c -4.8,0 -8.64,-4 -8.64,-8.79998 L 0,0 Z"
         style="fill:#808080;fill-opacity:1;fill-rule:evenodd;stroke:none"
         id="path4540"
         inkscape:connector-curvature="0" /></g><g
       id="g4542"
       transform="scale(0.048828,0.048828)"><text
         transform="translate(18225.6,7025.4399)"
         style="font-variant:normal;font-weight:normal;font-size:327.67999268px;font-family:F1;-inkscape-font-specification:F1;writing-mode:lr-tb;fill:#000000;fill-opacity:1;fill-rule:nonzero;stroke:#000000;stroke-width:3.27699995;stroke-linecap:butt;stroke-linejoin:miter;stroke-miterlimit:10;stroke-dasharray:none;stroke-opacity:1"
         id="text4544"><tspan
           x="0 275.25119 445.64478 599.65436 665.19037 825.7536 996.14716 1068.2368 1235.3535 1389.3632"
           y="0"
           sodipodi:role="line"
           id="tspan4546">WoT Thing </tspan></text>
</g><g
       id="g4548"
       transform="scale(0.048828,0.048828)"><text
         transform="translate(17308,7418.7202)"
         style="font-variant:normal;font-weight:normal;font-size:327.67999268px;font-family:F1;-inkscape-font-specification:F1;writing-mode:lr-tb;fill:#000000;fill-opacity:1;fill-rule:nonzero;stroke:#000000;stroke-width:3.27699995;stroke-linecap:butt;stroke-linejoin:miter;stroke-miterlimit:10;stroke-dasharray:none;stroke-opacity:1"
         id="text4550"><tspan
           x="0 101.5808 304.7424 458.75198 563.60956 714.34241 861.7984 1022.3616 1087.8976 1258.2911 1431.9615 1602.3552 1710.4896 1776.0255 1913.6511 2087.3215 2251.1616 2356.019 2460.8767 2627.9937 2700.0833 2772.1729 2932.7358 3040.8704"
           y="0"
           sodipodi:role="line"
           id="tspan4552">(Garage door controller)</tspan></text>
</g><g
       id="g4554"
       transform="translate(824.15997,331.84)"><path
         d="m 0,0 c 0,-4.8 3.84,-8.64 8.64,-8.64 l 177.92,0 c 4.96,0 8.8,3.84 8.8,8.64 l 0,257.60001 c 0,4.79998 -3.84,8.79998 -8.8,8.79998 l -177.92,0 c -4.8,0 -8.64,-4 -8.64,-8.79998 L 0,0 Z"
         style="fill:#808080;fill-opacity:1;fill-rule:evenodd;stroke:none"
         id="path4556"
         inkscape:connector-curvature="0" /></g><g
       id="g4558"
       transform="scale(0.048828,0.048828)"><text
         transform="translate(18225.6,7025.4399)"
         style="font-variant:normal;font-weight:normal;font-size:327.67999268px;font-family:F1;-inkscape-font-specification:F1;writing-mode:lr-tb;fill:#000000;fill-opacity:1;fill-rule:nonzero;stroke:#000000;stroke-width:3.27699995;stroke-linecap:butt;stroke-linejoin:miter;stroke-miterlimit:10;stroke-dasharray:none;stroke-opacity:1"
         id="text4560"><tspan
           x="0 275.25119 445.64478 599.65436 665.19037 825.7536 996.14716 1068.2368 1235.3535 1389.3632"
           y="0"
           sodipodi:role="line"
           id="tspan4562">WoT Thing </tspan></text>
</g><g
       id="g4564"
       transform="scale(0.048828,0.048828)"><text
         transform="translate(17308,7418.7202)"
         style="font-variant:normal;font-weight:normal;font-size:327.67999268px;font-family:F1;-inkscape-font-specification:F1;writing-mode:lr-tb;fill:#000000;fill-opacity:1;fill-rule:nonzero;stroke:#000000;stroke-width:3.27699995;stroke-linecap:butt;stroke-linejoin:miter;stroke-miterlimit:10;stroke-dasharray:none;stroke-opacity:1"
         id="text4566"><tspan
           x="0 101.5808 304.7424 458.75198 563.60956 714.34241 861.7984 1022.3616 1087.8976 1258.2911 1431.9615 1602.3552 1710.4896 1776.0255 1913.6511 2087.3215 2251.1616 2356.019 2460.8767 2627.9937 2700.0833 2772.1729 2932.7358 3040.8704"
           y="0"
           sodipodi:role="line"
           id="tspan4568">(Garage door controller)</tspan></text>
</g><g
       id="g4570"
       transform="translate(832.96002,499.35999)"><path
         d="m 0,0 c 0,-3.52 2.88,-6.4 6.4,-6.4 l 76.960001,0 c 3.519996,0 6.400001,2.88 6.400001,6.4 l 0,82.400002 c 0,3.519996 -2.880005,6.400001 -6.400001,6.400001 l -76.960001,0 c -3.52,0 -6.4,-2.880005 -6.4,-6.400001 L 0,0 Z"
         style="fill:#00b050;fill-opacity:1;fill-rule:evenodd;stroke:none"
         id="path4572"
         inkscape:connector-curvature="0" /></g><g
       id="g4574"
       transform="scale(0.048828,0.048828)"><text
         transform="translate(17668.5,10498.9)"
         style="font-variant:normal;font-weight:normal;font-size:327.67999268px;font-family:F2;-inkscape-font-specification:F2;writing-mode:lr-tb;fill:#ffffff;fill-opacity:1;fill-rule:nonzero;stroke:none"
         id="text4576"><tspan
           x="0 278.52798 452.19839"
           y="0"
           sodipodi:role="line"
           id="tspan4578">WoT</tspan></text>
</g><g
       id="g4580"
       transform="scale(0.048828,0.048828)"><text
         transform="translate(17416.199,10892.2)"
         style="font-variant:normal;font-weight:normal;font-size:327.67999268px;font-family:F2;-inkscape-font-specification:F2;writing-mode:lr-tb;fill:#ffffff;fill-opacity:1;fill-rule:nonzero;stroke:none"
         id="text4582"><tspan
           x="0 81.919998 252.3136 360.448 524.28796 638.97601 734.00317 891.28955 1028.9152"
           y="0"
           sodipodi:role="line"
           id="tspan4584">Interface</tspan></text>
</g><g
       id="g4586"
       transform="translate(23.360001,214.24)"><path
         d="m 0,0 c 0,-1.76 1.44,-3.2 3.2,-3.2 l 161.44,0 c 1.75999,0 3.2,1.44 3.2,3.2 l 0,65.440002 c 0,1.759995 -1.44001,3.199997 -3.2,3.199997 l -161.44,0 c -1.76,0 -3.2,-1.440002 -3.2,-3.199997 L 0,0 Z"
         style="fill:#808080;fill-opacity:1;fill-rule:evenodd;stroke:none"
         id="path4588"
         inkscape:connector-curvature="0" /></g><g
       id="g4590"
       transform="scale(0.048828,0.048828)"><text
         transform="translate(1418.88,4695.6802)"
         style="font-variant:normal;font-weight:normal;font-size:327.67999268px;font-family:F3;-inkscape-font-specification:F3;writing-mode:lr-tb;fill:#000000;fill-opacity:1;fill-rule:nonzero;stroke:none"
         id="text4592"><tspan
           x="0 285.0816 462.02878 625.86877 694.68158 868.35199 950.27197 1032.192 1196.032 1369.7024 1484.3904"
           y="0"
           sodipodi:role="line"
           id="tspan4594">WoT Client </tspan></text>
</g><g
       id="g4596"
       transform="scale(0.048828,0.048828)"><text
         transform="translate(1530.24,5088.7998)"
         style="font-variant:normal;font-weight:normal;font-size:327.67999268px;font-family:F3;-inkscape-font-specification:F3;writing-mode:lr-tb;fill:#000000;fill-opacity:1;fill-rule:nonzero;stroke:none"
         id="text4598"><tspan
           x="0 101.5808 285.0816 399.76959 576.7168 819.20001 950.27197 1114.1119 1232.0768"
           y="0"
           sodipodi:role="line"
           id="tspan4600">(Browser)</tspan></text>
</g><g
       id="g4602"
       transform="translate(23.360001,214.24)"><path
         d="m 0,0 c 0,-1.76 1.44,-3.2 3.2,-3.2 l 161.44,0 c 1.75999,0 3.2,1.44 3.2,3.2 l 0,65.440002 c 0,1.759995 -1.44001,3.199997 -3.2,3.199997 l -161.44,0 c -1.76,0 -3.2,-1.440002 -3.2,-3.199997 L 0,0 Z"
         style="fill:#808080;fill-opacity:1;fill-rule:evenodd;stroke:none"
         id="path4604"
         inkscape:connector-curvature="0" /></g><g
       id="g4606"
       transform="scale(0.048828,0.048828)"><text
         transform="translate(1418.88,4695.6802)"
         style="font-variant:normal;font-weight:normal;font-size:327.67999268px;font-family:F3;-inkscape-font-specification:F3;writing-mode:lr-tb;fill:#000000;fill-opacity:1;fill-rule:nonzero;stroke:none"
         id="text4608"><tspan
           x="0 285.0816 462.02878 625.86877 694.68158 868.35199 950.27197 1032.192 1196.032 1369.7024 1484.3904"
           y="0"
           sodipodi:role="line"
           id="tspan4610">WoT Client </tspan></text>
</g><g
       id="g4612"
       transform="scale(0.048828,0.048828)"><text
         transform="translate(1530.24,5088.7998)"
         style="font-variant:normal;font-weight:normal;font-size:327.67999268px;font-family:F3;-inkscape-font-specification:F3;writing-mode:lr-tb;fill:#000000;fill-opacity:1;fill-rule:nonzero;stroke:none"
         id="text4614"><tspan
           x="0 101.5808 285.0816 399.76959 576.7168 819.20001 950.27197 1114.1119 1232.0768"
           y="0"
           sodipodi:role="line"
           id="tspan4616">(Browser)</tspan></text>
</g><g
       id="g4618"><path
         d="m 252.8,233.44 129.92,0 0,41.60001 -10.56,10.56 -119.36,0 0,-52.16001 z"
         style="fill:#4a7b7c;fill-opacity:1;fill-rule:evenodd;stroke:none"
         id="path4620"
         inkscape:connector-curvature="0" /></g><g
       id="g4622"><path
         d="m 372.16,285.60001 2.07999,-8.48001 8.48001,-2.07999 -10.56,10.56 z"
         style="fill:#3b6364;fill-opacity:1;fill-rule:evenodd;stroke:none"
         id="path4624"
         inkscape:connector-curvature="0" /></g><g
       id="g4626"
       transform="scale(0.048828,0.048828)"><text
         transform="translate(6422.5601,5213.4399)"
         style="font-variant:normal;font-weight:normal;font-size:327.67999268px;font-family:F1;-inkscape-font-specification:F1;writing-mode:lr-tb;fill:#ffffff;fill-opacity:1;fill-rule:nonzero;stroke:none"
         id="text4628"><tspan
           x="0 157.28639 327.67999 399.76959 570.16321"
           y="0"
           sodipodi:role="line"
           id="tspan4630">Thing</tspan></text>
</g><g
       id="g4632"
       transform="scale(0.048828,0.048828)"><text
         transform="translate(6032.6401,5606.5601)"
         style="font-variant:normal;font-weight:normal;font-size:327.67999268px;font-family:F1;-inkscape-font-specification:F1;writing-mode:lr-tb;fill:#ffffff;fill-opacity:1;fill-rule:nonzero;stroke:none"
         id="text4634"><tspan
           x="0 199.8848 360.448 488.24319 629.14557 740.55676 812.64636 979.76318 1087.8976 1159.9872 1330.3807"
           y="0"
           sodipodi:role="line"
           id="tspan4636">Description</tspan></text>
</g><g
       id="g4638"
       transform="translate(227.84,255.52)"><path
         d="M 0,0 C 1.12,-1.92 3.36,-2.56 5.28,-1.44 7.04,-0.48 7.68,1.92 6.72,3.68 5.6,5.6 3.2,6.24 1.44,5.12 -0.32,4.16 -0.96,1.76 0,0 Z"
         style="fill:#ffffff;fill-opacity:1;fill-rule:evenodd;stroke:none"
         id="path4640"
         inkscape:connector-curvature="0" /></g><g
       id="g4642"
       transform="translate(931.20001,498.56)"><path
         d="m 0,0 c 0,-3.04 2.56,-5.6 5.6,-5.6 l 67.999998,0 c 3.200005,0 5.599999,2.56 5.599999,5.6 l 0,83.839996 c 0,3.200005 -2.399994,5.760002 -5.599999,5.760002 l -67.999998,0 c -3.04,0 -5.6,-2.559997 -5.6,-5.760002 L 0,0 Z"
         style="fill:#595959;fill-opacity:1;fill-rule:evenodd;stroke:none"
         id="path4644"
         inkscape:connector-curvature="0" /></g><g
       id="g4646"
       transform="scale(0.048828,0.048828)"><text
         transform="translate(19218.4,10495.5)"
         style="font-variant:normal;font-weight:normal;font-size:327.67999268px;font-family:F2;-inkscape-font-specification:F2;writing-mode:lr-tb;fill:#ffffff;fill-opacity:1;fill-rule:nonzero;stroke:none"
         id="text4648"><tspan
           x="0 203.16159 317.84958 393.216 537.3952 701.23517 815.92316 888.01276 1078.0671 1248.4608"
           y="0"
           sodipodi:role="line"
           id="tspan4650">Driver API</tspan></text>
</g><g
       id="g4652"><path
         d="m 941.28003,525.76001 59.03997,0 0,54.39996 -59.03997,0 0,-54.39996 z"
         style="fill:#bfbfbf;fill-opacity:1;fill-rule:nonzero;stroke:none"
         id="path4654"
         inkscape:connector-curvature="0" /></g><g
       id="g4656"
       transform="translate(941.12,525.76001)"><path
         d="m 0,0 c 0,-0.16 0.16,-0.16 0.16,-0.16 l 59.040001,0 c 0,0 0.16,0 0.16,0.16 l 0,54.400002 c 0,0 -0.16,0.159999 -0.16,0.159999 l -59.040001,0 c 0,0 -0.16,-0.159999 -0.16,-0.159999 L 0,0 Z m 0.32,54.400002 -0.16,-0.16 59.040001,0 -0.32,0.16 0,-54.400002 0.32,0.16 L 0.16,0.16 0.32,0 l 0,54.400002 z"
         style="fill:#000000;fill-opacity:1;fill-rule:nonzero;stroke:none"
         id="path4658"
         inkscape:connector-curvature="0" /></g><g
       id="g4660"
       transform="scale(0.03418,0.03418)"><text
         transform="translate(28063.5,16089.1)"
         style="font-variant:normal;font-weight:normal;font-size:327.67999268px;font-family:F2;-inkscape-font-specification:F2;writing-mode:lr-tb;fill:#000000;fill-opacity:1;fill-rule:nonzero;stroke:none"
         id="text4662"><tspan
           x="0 134.3488 308.0192 445.64478 602.93121"
           y="0"
           sodipodi:role="line"
           id="tspan4664">Local</tspan></text>
</g><g
       id="g4666"
       transform="scale(0.03418,0.03418)"><text
         transform="translate(27749.801,16482.199)"
         style="font-variant:normal;font-weight:normal;font-size:327.67999268px;font-family:F2;-inkscape-font-specification:F2;writing-mode:lr-tb;fill:#000000;fill-opacity:1;fill-rule:nonzero;stroke:none"
         id="text4668"><tspan
           x="0 206.4384 363.72479 471.85919 645.5296 874.90558 1035.4688 1143.6031"
           y="0"
           sodipodi:role="line"
           id="tspan4670">Hardware</tspan></text>
</g><g
       id="g4672"
       transform="translate(832.96002,386.07999)"><path
         d="m 0,0 c 0,-3.04 2.4,-5.44 5.44,-5.44 l 166.56,0 c 3.03999,0 5.44,2.4 5.44,5.44 l 0,93.279999 c 0,3.040001 -2.40001,5.440002 -5.44,5.440002 l -166.56,0 C 2.4,98.720001 0,96.32 0,93.279999 L 0,0 Z"
         style="fill:#005a9c;fill-opacity:1;fill-rule:evenodd;stroke:none"
         id="path4674"
         inkscape:connector-curvature="0" /></g><g
       id="g4676"
       transform="scale(0.048828,0.048828)"><text
         transform="translate(18255,8942.4004)"
         style="font-variant:normal;font-weight:normal;font-size:327.67999268px;font-family:F1;-inkscape-font-specification:F1;writing-mode:lr-tb;fill:#ffffff;fill-opacity:1;fill-rule:nonzero;stroke:none"
         id="text4678"><tspan
           x="0 150.7328 222.82239 334.23358 589.82397 815.92316 969.9328 1078.0671"
           y="0"
           sodipodi:role="line"
           id="tspan4680">Firmware</tspan></text>
</g><g
       id="g4682"><path
         d="m 328,317.76001 -7.04001,0 0,18.88 -13.75998,0 0,-18.88 -6.88,0 L 314.07999,303.84 328,317.76001 Z"
         style="fill:#bfbfbf;fill-opacity:1;fill-rule:evenodd;stroke:none"
         id="path4684"
         inkscape:connector-curvature="0" /></g><g
       id="g4686"><path
         d="m 659.84003,333.60001 129.75995,0 0,41.6 -10.56,10.56 -119.19995,0 0,-52.16 z"
         style="fill:#4a7b7c;fill-opacity:1;fill-rule:evenodd;stroke:none"
         id="path4688"
         inkscape:connector-curvature="0" /></g><g
       id="g4690"><path
         d="M 779.03998,385.76001 781.12,377.28 l 8.47998,-2.07999 -10.56,10.56 z"
         style="fill:#3b6364;fill-opacity:1;fill-rule:evenodd;stroke:none"
         id="path4692"
         inkscape:connector-curvature="0" /></g><g
       id="g4694"
       transform="scale(0.048828,0.048828)"><text
         transform="translate(14758.7,7264.6401)"
         style="font-variant:normal;font-weight:normal;font-size:327.67999268px;font-family:F1;-inkscape-font-specification:F1;writing-mode:lr-tb;fill:#ffffff;fill-opacity:1;fill-rule:nonzero;stroke:none"
         id="text4696"><tspan
           x="0 157.28639 327.67999 399.76959 570.16321"
           y="0"
           sodipodi:role="line"
           id="tspan4698">Thing</tspan></text>
</g><g
       id="g4700"
       transform="scale(0.048828,0.048828)"><text
         transform="translate(14368.8,7657.9199)"
         style="font-variant:normal;font-weight:normal;font-size:327.67999268px;font-family:F1;-inkscape-font-specification:F1;writing-mode:lr-tb;fill:#ffffff;fill-opacity:1;fill-rule:nonzero;stroke:none"
         id="text4702"><tspan
           x="0 199.8848 360.448 488.24319 629.14557 740.55676 812.64636 979.76318 1087.8976 1159.9872 1330.3807"
           y="0"
           sodipodi:role="line"
           id="tspan4704">Description</tspan></text>
</g><g
       id="g4706"><path
         d="m 805.28003,346.39999 0,7.04001 18.87994,0 0,13.76001 -18.87994,0 0,6.87998 -13.76001,-13.75998 13.76001,-13.92002 z"
         style="fill:#bfbfbf;fill-opacity:1;fill-rule:evenodd;stroke:none"
         id="path4708"
         inkscape:connector-curvature="0" /></g><g
       id="g4710"
       transform="translate(296.95999,506.23999)"><path
         d="m 0,0 c 0,-15.04 14.56,-27.360001 32.639999,-27.360001 17.920002,0 32.480004,12.320001 32.480004,27.360001 0,15.2 -14.560002,27.52 -32.480004,27.52 C 14.56,27.52 0,15.2 0,0 Z"
         style="fill:#d9d9d9;fill-opacity:1;fill-rule:evenodd;stroke:none"
         id="path4712"
         inkscape:connector-curvature="0" /></g><g
       id="g4714"
       transform="translate(393.60001,499.51999)"><path
         d="m 0,0 c 0,-18.24 17.6,-33.119999 39.200001,-33.119999 21.599998,0 39.200001,14.879999 39.200001,33.119999 0,18.24 -17.600003,32.959999 -39.200001,32.959999 C 17.6,32.959999 0,18.24 0,0 Z"
         style="fill:#d9d9d9;fill-opacity:1;fill-rule:evenodd;stroke:none"
         id="path4716"
         inkscape:connector-curvature="0" /></g><g
       id="g4718"><path
         d="m 334.88,495.04001 96.63999,0 0,38.72 -96.63999,0 0,-38.72 z"
         style="fill:#d9d9d9;fill-opacity:1;fill-rule:nonzero;stroke:none"
         id="path4720"
         inkscape:connector-curvature="0" /></g><g
       id="g4722"
       transform="translate(336.79999,477.60001)"><path
         d="m 0,0 c 0,-19.68 18.879999,-35.84 42.400002,-35.84 23.519996,0 42.400001,16.16 42.400001,35.84 0,19.84 -18.880005,35.84 -42.400001,35.84 C 18.879999,35.84 0,19.84 0,0 Z"
         style="fill:#d9d9d9;fill-opacity:1;fill-rule:evenodd;stroke:none"
         id="path4724"
         inkscape:connector-curvature="0" /></g><g
       id="g4726"
       transform="scale(0.043945,0.043945)"><text
         transform="translate(8086.3999,10981)"
         style="font-variant:normal;font-weight:normal;font-size:327.67999268px;font-family:F2;-inkscape-font-specification:F2;writing-mode:lr-tb;fill:#ffffff;fill-opacity:1;fill-rule:nonzero;stroke:none"
         id="text4728"><tspan
           x="0 85.1968 252.3136 357.1712 521.01117 632.42236 806.09277 969.9328"
           y="0"
           sodipodi:role="line"
           id="tspan4730">Internet</tspan></text>
</g><g
       id="g4732"
       transform="scale(0.043945,0.043945)"><text
         transform="translate(16394.9,6156.7998)"
         style="font-variant:normal;font-weight:normal;font-size:327.67999268px;font-family:F4;-inkscape-font-specification:F4;writing-mode:lr-tb;fill:#000000;fill-opacity:1;fill-rule:nonzero;stroke:none"
         id="text4734"><tspan
           x="0 183.50079 363.72479 527.56476 711.06561 783.15521 874.90558 1055.1295 1238.6304 1330.3807 1559.7567 1739.9807 1848.1151"
           y="0"
           sodipodi:role="line"
           id="tspan4736">Local network</tspan></text>
</g><g
       id="g4738"
       transform="translate(32.32,420.32001)"><path
         d="m 0,0 c 0,-4.32 3.52,-7.84 7.84,-7.84 l 230.55999,0 C 242.72,-7.84 246.24,-4.32 246.24,0 l 0,160 c 0,4.32001 -3.52,7.84 -7.84001,7.84 L 7.84,167.84 C 3.52,167.84 0,164.32001 0,160 L 0,0 Z"
         style="fill:#808080;fill-opacity:1;fill-rule:evenodd;stroke:none"
         id="path4740"
         inkscape:connector-curvature="0" /></g><g
       id="g4742"
       transform="scale(0.048828,0.048828)"><text
         transform="translate(2205.28,8847.3604)"
         style="font-variant:normal;font-weight:normal;font-size:327.67999268px;font-family:F3;-inkscape-font-specification:F3;writing-mode:lr-tb;fill:#000000;fill-opacity:1;fill-rule:nonzero;stroke:none"
         id="text4744"><tspan
           x="0 180.224 344.064 609.4848 786.43201 897.8432 1061.6832 1133.7728 1300.8895 1477.8368 1595.8015 1707.2128 1867.776"
           y="0"
           sodipodi:role="line"
           id="tspan4746">Remote Portal</tspan></text>
</g><g
       id="g4748"
       transform="translate(32.32,420.32001)"><path
         d="m 0,0 c 0,-4.32 3.52,-7.84 7.84,-7.84 l 230.55999,0 C 242.72,-7.84 246.24,-4.32 246.24,0 l 0,160 c 0,4.32001 -3.52,7.84 -7.84001,7.84 L 7.84,167.84 C 3.52,167.84 0,164.32001 0,160 L 0,0 Z"
         style="fill:#808080;fill-opacity:1;fill-rule:evenodd;stroke:none"
         id="path4750"
         inkscape:connector-curvature="0" /></g><g
       id="g4752"
       transform="scale(0.048828,0.048828)"><text
         transform="translate(2205.28,8847.3604)"
         style="font-variant:normal;font-weight:normal;font-size:327.67999268px;font-family:F3;-inkscape-font-specification:F3;writing-mode:lr-tb;fill:#000000;fill-opacity:1;fill-rule:nonzero;stroke:none"
         id="text4754"><tspan
           x="0 180.224 344.064 609.4848 786.43201 897.8432 1061.6832 1133.7728 1300.8895 1477.8368 1595.8015 1707.2128 1867.776"
           y="0"
           sodipodi:role="line"
           id="tspan4756">Remote Portal</tspan></text>
</g><g
       id="g4758"
       transform="translate(525.28003,420.32001)"><path
         d="m 0,0 c 0,-4.32 3.52,-7.84 7.84,-7.84 l 230.72,0 c 4.32,0 7.83999,3.52 7.83999,7.84 l 0,160 c 0,4.32001 -3.51999,7.84 -7.83999,7.84 l -230.72,0 C 3.52,167.84 0,164.32001 0,160 L 0,0 Z"
         style="fill:#808080;fill-opacity:1;fill-rule:evenodd;stroke:none"
         id="path4760"
         inkscape:connector-curvature="0" /></g><g
       id="g4762"
       transform="scale(0.048828,0.048828)"><text
         transform="translate(12297.8,8847.3604)"
         style="font-variant:normal;font-weight:normal;font-size:327.67999268px;font-family:F3;-inkscape-font-specification:F3;writing-mode:lr-tb;fill:#000000;fill-opacity:1;fill-rule:nonzero;stroke:none"
         id="text4764"><tspan
           x="0 137.6256 314.57278 448.9216 609.4848 691.40479 766.77118 976.48639 1133.7728 1245.184 1405.7472 1648.2303 1802.24"
           y="0"
           sodipodi:role="line"
           id="tspan4766">Local Gateway</tspan></text>
</g><g
       id="g4768"
       transform="translate(525.28003,420.32001)"><path
         d="m 0,0 c 0,-4.32 3.52,-7.84 7.84,-7.84 l 230.72,0 c 4.32,0 7.83999,3.52 7.83999,7.84 l 0,160 c 0,4.32001 -3.51999,7.84 -7.83999,7.84 l -230.72,0 C 3.52,167.84 0,164.32001 0,160 L 0,0 Z"
         style="fill:#808080;fill-opacity:1;fill-rule:evenodd;stroke:none"
         id="path4770"
         inkscape:connector-curvature="0" /></g><g
       id="g4772"
       transform="scale(0.048828,0.048828)"><text
         transform="translate(12297.8,8847.3604)"
         style="font-variant:normal;font-weight:normal;font-size:327.67999268px;font-family:F3;-inkscape-font-specification:F3;writing-mode:lr-tb;fill:#000000;fill-opacity:1;fill-rule:nonzero;stroke:none"
         id="text4774"><tspan
           x="0 137.6256 314.57278 448.9216 609.4848 691.40479 766.77118 976.48639 1133.7728 1245.184 1405.7472 1648.2303 1802.24"
           y="0"
           sodipodi:role="line"
           id="tspan4776">Local Gateway</tspan></text>
</g><g
       id="g4778"
       transform="scale(0.043945,0.043945)"><text
         transform="translate(8956.6396,12047.7)"
         style="font-variant:normal;font-weight:normal;font-size:327.67999268px;font-family:F4;-inkscape-font-specification:F4;writing-mode:lr-tb;fill:#000000;fill-opacity:1;fill-rule:nonzero;stroke:none"
         id="text4780"><tspan
           x="0 91.750397 271.9744 455.47519 635.69916 819.20001"
           y="0"
           sodipodi:role="line"
           id="tspan4782">tunnel</tspan></text>
</g><g
       id="g4784"
       transform="translate(23.360001,360.95999)"><path
         d="M 0,0 C 0,-15.2 14.4,-27.360001 32,-27.360001 49.599998,-27.360001 63.84,-15.2 63.84,0 63.84,15.04 49.599998,27.360001 32,27.360001 14.4,27.360001 0,15.04 0,0 Z"
         style="fill:#d9d9d9;fill-opacity:1;fill-rule:evenodd;stroke:none"
         id="path4786"
         inkscape:connector-curvature="0" /></g><g
       id="g4788"
       transform="translate(118.08,354.07999)"><path
         d="M 0,0 C 0,-18.08 17.280001,-32.799999 38.400002,-32.799999 59.52,-32.799999 76.800003,-18.08 76.800003,0 76.800003,18.24 59.52,32.959999 38.400002,32.959999 17.280001,32.959999 0,18.24 0,0 Z"
         style="fill:#d9d9d9;fill-opacity:1;fill-rule:evenodd;stroke:none"
         id="path4790"
         inkscape:connector-curvature="0" /></g><g
       id="g4792"><path
         d="m 60.639999,349.60001 94.720001,0 0,38.72 -94.720001,0 0,-38.72 z"
         style="fill:#d9d9d9;fill-opacity:1;fill-rule:nonzero;stroke:none"
         id="path4794"
         inkscape:connector-curvature="0" /></g><g
       id="g4796"
       transform="translate(62.400002,332.32001)"><path
         d="m 0,0 c 0,-19.68 18.559999,-35.68 41.599998,-35.68 22.880005,0 41.599999,16 41.599999,35.68 0,19.84 -18.719994,35.68 -41.599999,35.68 C 18.559999,35.68 0,19.84 0,0 Z"
         style="fill:#d9d9d9;fill-opacity:1;fill-rule:evenodd;stroke:none"
         id="path4798"
         inkscape:connector-curvature="0" /></g><g
       id="g4800"
       transform="scale(0.043945,0.043945)"><text
         transform="translate(1824.16,7675.04)"
         style="font-variant:normal;font-weight:normal;font-size:327.67999268px;font-family:F2;-inkscape-font-specification:F2;writing-mode:lr-tb;fill:#ffffff;fill-opacity:1;fill-rule:nonzero;stroke:none"
         id="text4802"><tspan
           x="0 85.1968 252.3136 357.1712 521.01117 632.42236 806.09277 969.9328"
           y="0"
           sodipodi:role="line"
           id="tspan4804">Internet</tspan></text>
</g><g
       id="g4806"
       transform="translate(149.11999,398.72)"><path
         d="m 0,0 -0.48,-108.8 2.4,0 L 2.4,0 0,0 Z m -4.48,-102.08 5.28,-8.96 5.28,8.96 c 0.32,0.48 0.16,1.28 -0.48,1.6 -0.48,0.32 -1.28,0.16 -1.6,-0.48 l 0,0 -4.32,-7.2 2.08,0 -4.16,7.2 c -0.32,0.64 -0.96,0.8 -1.6,0.48 -0.64,-0.32 -0.8,-1.12 -0.48,-1.6 z"
         style="fill:#ff0000;fill-opacity:1;fill-rule:nonzero;stroke:none"
         id="path4808"
         inkscape:connector-curvature="0" /></g><g
       id="g4810"
       transform="translate(59.52,295.35999)"><path
         d="m 0,0 -0.16,101.92 2.4,0 L 2.4,0 0,0 Z M -4.16,95.199997 1.12,104.32 6.4,95.199997 C 6.72,94.720001 6.4,93.919998 5.92,93.599998 5.28,93.279999 4.64,93.440002 4.32,94.080002 L 0,101.28 l 2.08,0 -4.16,-7.199998 c -0.32,-0.64 -1.12,-0.800003 -1.6,-0.480004 -0.64,0.32 -0.8,1.120003 -0.48,1.599999 z"
         style="fill:#ff0000;fill-opacity:1;fill-rule:nonzero;stroke:none"
         id="path4812"
         inkscape:connector-curvature="0" /></g><g
       id="g4814"
       transform="translate(781.12,531.67999)"><path
         d="M 0,0 36,0.64 36,3.04 0,2.4 0,0 Z m 29.440001,-3.52 8.960001,5.44 -9.120001,4.96 C 28.639999,7.2 28,7.04 27.68,6.56 27.360001,5.92 27.52,5.12 28.16,4.8 l 7.200001,-4 0,2.08 L 28.16,-1.44 c -0.48,-0.32 -0.799999,-1.12 -0.32,-1.76 0.32,-0.48 0.959999,-0.64 1.600001,-0.32 z"
         style="fill:#ff0000;fill-opacity:1;fill-rule:nonzero;stroke:none"
         id="path4816"
         inkscape:connector-curvature="0" /></g><g
       id="g4818"
       transform="translate(818.88,553.91998)"><path
         d="m 0,0 -37.439999,0 0,2.4 L 0,2.4 0,0 Z M -30.879999,-4 -39.84,1.12 -30.879999,6.4 C -30.4,6.72 -29.6,6.56 -29.280001,6.08 c 0.320002,-0.64 0.16,-1.44 -0.479999,-1.76 l 0,0 -7.199999,-4.16 0,2.08 7.199999,-4.16 c 0.639999,-0.32 0.800001,-1.12 0.479999,-1.76 C -29.6,-4.16 -30.4,-4.32 -30.879999,-4 Z"
         style="fill:#ff0000;fill-opacity:1;fill-rule:nonzero;stroke:none"
         id="path4820"
         inkscape:connector-curvature="0" /></g><g
       id="g4822"
       transform="translate(240.48,253.75999)"><path
         d="m 0,0 -2.4,0 0,2.4 L 0,2.4 0,0 Z m -4.8,0 -2.4,0 0,2.4 2.4,0 0,-2.4 z m -4.8,0 -2.4,0 0,2.4 2.4,0 0,-2.4 z m -4.8,0 -2.399999,0 0,2.4 2.399999,0 0,-2.4 z M -19.200001,0 -21.6,0 l 0,2.4 2.399999,0 0,-2.4 z M -24,0 l -2.4,0 0,2.4 2.4,0 0,-2.4 z m -4.799999,0 -2.400002,0 0,2.4 2.400002,0 0,-2.4 z M -33.599998,0 -36,0 l 0,2.4 2.400002,0 0,-2.4 z M -29.92,-4 -39.040001,1.12 -29.92,6.4 c 0.479999,0.32 1.280001,0.16 1.6,-0.48 0.32,-0.48 0.16,-1.28 -0.479999,-1.6 l 0,0 L -36,0.16 l 0,2.08 7.200001,-4.32 C -28.16,-2.4 -28,-3.04 -28.32,-3.68 c -0.319999,-0.48 -1.120001,-0.8 -1.6,-0.32 z"
         style="fill:#000000;fill-opacity:1;fill-rule:nonzero;stroke:none"
         id="path4824"
         inkscape:connector-curvature="0" /></g><g
       id="g4826"
       transform="scale(0.043945,0.043945)"><text
         transform="translate(0,7056)"
         style="font-variant:normal;font-weight:normal;font-size:327.67999268px;font-family:F2;-inkscape-font-specification:F2;writing-mode:lr-tb;fill:#000000;fill-opacity:1;fill-rule:nonzero;stroke:none"
         id="text4828"><tspan
           x="0 167.11679 252.3136 324.4032 514.45758 652.08319 760.21759 838.86078 1009.2544 1179.6479"
           y="0"
           sodipodi:role="line"
           id="tspan4830">1. Action </tspan></text>
</g><g
       id="g4832"
       transform="scale(0.043945,0.043945)"><text
         transform="translate(298.56,7452.96)"
         style="font-variant:normal;font-weight:normal;font-size:327.67999268px;font-family:F2;-inkscape-font-specification:F2;writing-mode:lr-tb;fill:#000000;fill-opacity:1;fill-rule:nonzero;stroke:none"
         id="text4834"><tspan
           x="0 108.1344 271.9744 445.64478 616.03839 779.87836 904.39679 1012.5312"
           y="0"
           sodipodi:role="line"
           id="tspan4836">request </tspan></text>
</g><g
       id="g4838"
       transform="scale(0.043945,0.043945)"><text
         transform="translate(3699.2,7081.6001)"
         style="font-variant:normal;font-weight:normal;font-size:327.67999268px;font-family:F2;-inkscape-font-specification:F2;writing-mode:lr-tb;fill:#000000;fill-opacity:1;fill-rule:nonzero;stroke:none"
         id="text4840"><tspan
           x="0 167.11679 252.3136 324.4032 514.45758 652.08319 760.21759 838.86078 1009.2544 1179.6479"
           y="0"
           sodipodi:role="line"
           id="tspan4842">2. Action </tspan></text>
</g><g
       id="g4844"
       transform="scale(0.043945,0.043945)"><text
         transform="translate(3997.76,7478.3999)"
         style="font-variant:normal;font-weight:normal;font-size:327.67999268px;font-family:F2;-inkscape-font-specification:F2;writing-mode:lr-tb;fill:#000000;fill-opacity:1;fill-rule:nonzero;stroke:none"
         id="text4846"><tspan
           x="0 108.1344 271.9744 399.76959 570.16321 743.83356 914.22717 1042.0223 1205.8624"
           y="0"
           sodipodi:role="line"
           id="tspan4848">response </tspan></text>
</g><g
       id="g4850"
       transform="translate(484.32001,239.67999)"><path
         d="m 0,0 c 0,-0.8 0.64,-1.6 1.6,-1.6 l 31.519999,0 c 0.799999,0 1.600002,0.8 1.600002,1.6 l 0,369.12 c 0,0.95999 -0.800003,1.6 -1.600002,1.6 L 1.6,370.72 c -0.96,0 -1.6,-0.64001 -1.6,-1.6 L 0,0 Z"
         style="fill:#f79646;fill-opacity:1;fill-rule:evenodd;stroke:none"
         id="path4852"
         inkscape:connector-curvature="0" /></g><g
       id="g4854"
       transform="matrix(0,-0.043945,0.043945,0,0,0)"><text
         transform="translate(-10536.8,11559.8)"
         style="font-variant:normal;font-weight:normal;font-size:327.67999268px;font-family:F4;-inkscape-font-specification:F4;writing-mode:lr-tb;fill:#000000;fill-opacity:1;fill-rule:nonzero;stroke:none"
         id="text4856"><tspan
           x="0 235.9296 429.2608 622.59198 717.6192 937.16479 1025.6384 1225.5232 1300.8895 1409.0239 1592.5248 1821.9008 2002.1248 2074.2144"
           y="0"
           sodipodi:role="line"
           id="tspan4858">NAT &amp; Firewall</tspan></text>
</g><g
       id="g4860"><path
         d="m 660.96002,357.44 0,2.4 -2.40002,0 0,-2.4 2.40002,0 z m -3.04004,4 -2.39996,0 0,-2.39999 2.39996,0 0,2.39999 z m -4.79998,0 -2.40003,0 0,-2.39999 2.40003,0 0,2.39999 z m -4.79999,0 -2.40003,0 0,-2.39999 2.40003,0 0,2.39999 z m -4.79999,0 -2.40002,0 0,-2.39999 2.40002,0 0,2.39999 z m -4.80005,0 -2.39996,0 0,-2.39999 2.39996,0 0,2.39999 z m -4.79999,0 -2.39996,0 0,-2.39999 2.39996,0 0,2.39999 z m -4.79998,0 -2.40003,0 0,-2.39999 2.40003,0 0,2.39999 z m -4.96003,0 -2.39996,0 0,-2.39999 2.39996,0 0,2.39999 z m -4.79999,0 -2.39996,0 0,-2.39999 2.39996,0 0,2.39999 z m -4.79998,0 -2.40003,0 0,-2.39999 2.40003,0 0,2.39999 z m -4.79999,0 -2.40003,0 0,-2.39999 2.40003,0 0,2.39999 z m -4.79999,0 -2.40002,0 0,-2.39999 2.40002,0 0,2.39999 z m -4.80005,0 -2.39996,0 0,-2.39999 2.39996,0 0,2.39999 z m -4.79999,0 -2.39996,0 0,-2.39999 2.39996,0 0,2.39999 z m -4.79998,0 -2.40003,0 0,-2.39999 2.40003,0 0,2.39999 z m -4.79999,0 -2.40003,0 0,-2.39999 2.40003,0 0,2.39999 z m -4.79999,0 -2.40002,0 0,-2.39999 2.40002,0 0,2.39999 z m -4.80005,0 -2.39996,0 0,-2.39999 2.39996,0 0,2.39999 z m -4.79999,0 -2.39996,0 0,-2.39999 2.39996,0 0,2.39999 z m -4.79998,0 -2.40003,0 0,-2.39999 2.40003,0 0,2.39999 z m -4.79999,0 -2.40003,0 0,-2.39999 2.40003,0 0,2.39999 z m -4.79999,0 -2.40002,0 0,-2.39999 2.40002,0 0,2.39999 z m -4.80005,0 -2.39996,0 0,-2.39999 2.39996,0 0,2.39999 z m -4.79999,0 -2.39996,0 0,-2.39999 2.39996,0 0,2.39999 z m -4.79998,0 -2.40003,0 0,-2.39999 2.40003,0 0,2.39999 z m -4.79999,0 -2.40003,0 0,-2.39999 2.40003,0 0,2.39999 z m -4.79999,0 -2.40002,0 0,-2.39999 2.40002,0 0,2.39999 z m -4.80005,0 -2.39996,0 0,-2.39999 2.39996,0 0,2.39999 z m -4.95996,0 -2.40002,0 0,-2.39999 2.40002,0 0,2.39999 z m -4.79999,0 -2.40002,0 0,-2.39999 2.40002,0 0,2.39999 z m -4.80004,0 -2.39997,0 0,-2.39999 2.39997,0 0,2.39999 z m -4.79999,0 -2.4,0 0,-2.39999 2.4,0 0,2.39999 z m -4.79999,0 -2.39999,0 0,-2.39999 2.39999,0 0,2.39999 z m -4.79999,0 -2.40002,0 0,-2.39999 2.40002,0 0,2.39999 z m -4.80002,0 -2.39999,0 0,-2.39999 2.39999,0 0,2.39999 z m -4.79998,0 -2.4,0 0,-2.39999 2.4,0 0,2.39999 z m -4.80002,0 -2.4,0 0,-2.39999 2.4,0 0,2.39999 z m -4.79999,0 -2.39999,0 0,-2.39999 2.39999,0 0,2.39999 z m -4.79999,0 -2.40002,0 0,-2.39999 2.40002,0 0,2.39999 z m -4.80002,0 -2.39999,0 0,-2.39999 2.39999,0 0,2.39999 z m -4.79998,0 -2.4,0 0,-2.39999 2.4,0 0,2.39999 z m -4.80002,0 -2.4,0 0,-2.39999 2.4,0 0,2.39999 z m -4.79999,0 -2.39999,0 0,-2.39999 2.39999,0 0,2.39999 z m -4.79999,0 -2.40002,0 0,-2.39999 2.40002,0 0,2.39999 z m -4.80002,0 -2.39999,0 0,-2.39999 2.39999,0 0,2.39999 z m -4.79998,0 -2.4,0 0,-2.39999 2.4,0 0,2.39999 z m -4.80002,0 -2.4,0 0,-2.39999 2.4,0 0,2.39999 z m -4.79999,0 -2.39999,0 0,-2.39999 2.39999,0 0,2.39999 z m -4.79999,0 -2.40002,0 0,-2.39999 2.40002,0 0,2.39999 z m -4.96002,0 -2.39999,0 0,-2.39999 2.39999,0 0,2.39999 z m -4.79999,0 -2.39999,0 0,-2.39999 2.39999,0 0,2.39999 z m -4.79999,0 -2.40002,0 0,-2.39999 2.40002,0 0,2.39999 z m -4.80001,0 -2.4,0 0,-2.39999 2.4,0 0,2.39999 z m -4.79999,0 -2.4,0 0,-2.39999 2.4,0 0,2.39999 z m -4.80002,0 -2.39999,0 0,-2.39999 2.39999,0 0,2.39999 z m -4.79999,0 -2.39999,0 0,-2.39999 2.39999,0 0,2.39999 z m -4.79999,0 -2.40002,0 0,-2.39999 2.40002,0 0,2.39999 z m -4.80001,0 -2.4,0 0,-2.39999 2.4,0 0,2.39999 z m -4.79999,0 -2.4,0 0,-2.39999 2.4,0 0,2.39999 z m 3.67999,4.16001 -8.95999,-5.28 8.95999,-5.28 c 0.63999,-0.32001 1.28,-0.16001 1.60001,0.47998 0.32,0.48001 0.16,1.28 -0.32001,1.60001 l 0,0 -7.20001,4.16 0,-2.07999 7.20001,4.31998 c 0.48001,0.32001 0.64001,0.96002 0.32001,1.60001 -0.32001,0.64001 -0.96002,0.80001 -1.60001,0.48001 z"
         style="fill:#000000;fill-opacity:1;fill-rule:nonzero;stroke:none"
         id="path4862"
         inkscape:connector-curvature="0" /></g><g
       id="g4864"
       transform="translate(230.08,409.44)"><path
         d="M 0,0 C 0,-12 14.08,-21.76 31.200001,-21.76 48.32,-21.76 62.240002,-12 62.240002,0 62.240002,12.16 48.32,21.92 31.200001,21.92 14.08,21.92 0,12.16 0,0 Z"
         style="fill:#d9d9d9;fill-opacity:1;fill-rule:evenodd;stroke:none"
         id="path4866"
         inkscape:connector-curvature="0" /></g><g
       id="g4868"
       transform="translate(313.28,404.95999)"><path
         d="m 0,0 c 0,-14.4 16.799999,-26.24 37.439999,-26.24 20.640003,0 37.439998,11.84 37.439998,26.24 0,14.56 -16.799995,26.4 -37.439998,26.4 C 16.799999,26.4 0,14.56 0,0 Z"
         style="fill:#d9d9d9;fill-opacity:1;fill-rule:evenodd;stroke:none"
         id="path4870"
         inkscape:connector-curvature="0" /></g><g
       id="g4872"><path
         d="m 262.39999,400.48001 92.32001,0 0,30.87998 -92.32001,0 0,-30.87998 z"
         style="fill:#d9d9d9;fill-opacity:1;fill-rule:nonzero;stroke:none"
         id="path4874"
         inkscape:connector-curvature="0" /></g><g
       id="g4876"
       transform="translate(269.44,383.84)"><path
         d="M 0,0 C 0,-15.84 21.440001,-28.639999 48,-28.639999 74.400002,-28.639999 95.839996,-15.84 95.839996,0 95.839996,15.68 74.400002,28.48 48,28.48 21.440001,28.48 0,15.68 0,0 Z"
         style="fill:#d9d9d9;fill-opacity:1;fill-rule:evenodd;stroke:none"
         id="path4878"
         inkscape:connector-curvature="0" /></g><g
       id="g4880"
       transform="scale(0.043945,0.043945)"><text
         transform="translate(6790.2402,8643.5195)"
         style="font-variant:normal;font-weight:normal;font-size:327.67999268px;font-family:F2;-inkscape-font-specification:F2;writing-mode:lr-tb;fill:#ffffff;fill-opacity:1;fill-rule:nonzero;stroke:none"
         id="text4882"><tspan
           x="0 160.5632 330.95679 406.32318 579.99359 730.72638"
           y="0"
           sodipodi:role="line"
           id="tspan4884">Things</tspan></text>
</g><g
       id="g4886"
       transform="scale(0.043945,0.043945)"><text
         transform="translate(6622.7202,9036.6396)"
         style="font-variant:normal;font-weight:normal;font-size:327.67999268px;font-family:F2;-inkscape-font-specification:F2;writing-mode:lr-tb;fill:#ffffff;fill-opacity:1;fill-rule:nonzero;stroke:none"
         id="text4888"><tspan
           x="0 170.3936 249.03679 357.1712 521.01117 658.63678 763.49438 937.16479 1048.5759"
           y="0"
           sodipodi:role="line"
           id="tspan4890">directory</tspan></text>
</g><g
       id="g4892"><path
         d="m 584.79999,514.40002 -378.55999,0 0,12.79999 -25.76,-25.6 25.76,-25.76001 0,12.80001 378.55999,0 0,25.76001 z"
         style="fill:#4f81bd;fill-opacity:1;fill-rule:evenodd;stroke:none"
         id="path4894"
         inkscape:connector-curvature="0" /></g><g
       id="g4896"
       transform="translate(585.59998,515.20001)"><path
         d="m 0,0 -379.35999,0 0.79999,-0.8 0,14.72 -27.67999,-27.52 27.67999,-27.679999 0,14.72 -0.79999,-0.800002 379.35999,0 L 0,0 Z m -1.6,-26.559999 0.8,0.799999 -379.36,0 0,-13.600001 1.28,0.64 -25.60001,25.600001 0,-1.12 25.60001,25.6 -1.28,0.64 0,-13.6 379.36,0 -0.8,0.8 0,-25.759999 z"
         style="fill:#385d8a;fill-opacity:1;fill-rule:nonzero;stroke:none"
         id="path4898"
         inkscape:connector-curvature="0" /></g><g
       id="g4900"
       transform="translate(586.23999,492.48001)"><path
         d="m 0,0 95.839996,0 c 0.960007,0 1.600006,0.64 1.600006,1.44 l 0,37.600001 -1.600006,-1.600002 95.839994,0 0,3.040001 -95.839994,0 c -0.799995,0 -1.439994,-0.64 -1.439994,-1.439999 l 0,-37.600001 1.439994,1.6 L 0,3.04 0,0 Z m 191.67999,34.560001 c 2.56001,0 4.64002,1.919999 4.64002,4.48 0,2.399998 -2.08001,4.479999 -4.64002,4.479999 -2.39999,0 -4.47999,-2.080001 -4.47999,-4.479999 0,-2.560001 2.08,-4.48 4.47999,-4.48 z"
         style="fill:#ff0000;fill-opacity:1;fill-rule:nonzero;stroke:none"
         id="path4902"
         inkscape:connector-curvature="0" /></g><g
       id="g4904"
       transform="translate(589.12,492.64001)"><path
         d="m 0,0 -216.16,0 c -0.80001,0 -1.44001,0.64 -1.44001,1.6 l 0,0 1.44001,-1.44 -216,0 0,3.04 216,0 c 0.96,0 1.6,-0.8 1.6,-1.6 l 0,0 -1.6,1.44 L 0,3.04 0,0 Z m -432.16,-2.88 c -2.4,0 -4.48001,2.08 -4.48001,4.48 0,2.56 2.08001,4.48 4.48001,4.48 2.55999,0 4.48001,-1.92 4.48001,-4.48 0,-2.4 -1.92002,-4.48 -4.48001,-4.48 z"
         style="fill:#ff0000;fill-opacity:1;fill-rule:nonzero;stroke:none"
         id="path4906"
         inkscape:connector-curvature="0" /></g><g
       id="g4908"
       transform="translate(156.96001,506.07999)"><path
         d="m 0,0 498.72,0 c 0.79999,0 1.44,0.64 1.44,1.44 l 0,47.519999 -1.44,-1.439999 122.72,0 0,3.040001 -122.72,0 c -0.79999,0 -1.44,-0.640003 -1.44,-1.600002 L 497.28,1.44 498.72,3.04 0,3.04 0,0 Z m 0,5.92 c -2.4,0 -4.48,-1.92 -4.48,-4.48 0,-2.4 2.08,-4.48 4.48,-4.48 2.56,0 4.48,2.08 4.48,4.48 C 4.48,4 2.56,5.92 0,5.92 Z m 621.44,38.56 c 2.56,0 4.64002,2.080001 4.64002,4.479999 0,2.560001 -2.08002,4.639999 -4.64002,4.639999 -2.40002,0 -4.47998,-2.079998 -4.47998,-4.639999 0,-2.399998 2.07996,-4.479999 4.47998,-4.479999 z"
         style="fill:#ff0000;fill-opacity:1;fill-rule:nonzero;stroke:none"
         id="path4910"
         inkscape:connector-curvature="0" /></g><g
       id="g4912"
       transform="translate(71.68,441.76001)"><path
         d="M 0,0 0,-38.240002 C 0,-39.040001 0.8,-39.84 1.6,-39.84 l 76.639998,0 0,3.040001 -76.639998,0 1.44,-1.440003 L 3.04,0 0,0 Z m 78.239998,-42.720001 c 2.400001,0 4.480003,1.920002 4.480003,4.479999 0,2.400002 -2.080002,4.480004 -4.480003,4.480004 -2.559998,0 -4.479996,-2.080002 -4.479996,-4.480004 0,-2.559997 1.919998,-4.479999 4.479996,-4.479999 z"
         style="fill:#ff0000;fill-opacity:1;fill-rule:nonzero;stroke:none"
         id="path4914"
         inkscape:connector-curvature="0" /></g><g
       id="g4916"
       transform="translate(42.240002,446.23999)"><path
         d="m 0,0 c 0,-2.4 1.92,-4.48 4.48,-4.48 l 53.119998,0 C 60,-4.48 62.080002,-2.4 62.080002,0 l 0,85.279999 c 0,2.400001 -2.080002,4.319999 -4.480004,4.319999 l -53.119998,0 C 1.92,89.599998 0,87.68 0,85.279999 L 0,0 Z"
         style="fill:#00b050;fill-opacity:1;fill-rule:evenodd;stroke:none"
         id="path4918"
         inkscape:connector-curvature="0" /></g><g
       id="g4920"
       transform="scale(0.048828,0.048828)"><text
         transform="translate(1074.72,9440.4805)"
         style="font-variant:normal;font-weight:normal;font-size:327.67999268px;font-family:F2;-inkscape-font-specification:F2;writing-mode:lr-tb;fill:#ffffff;fill-opacity:1;fill-rule:nonzero;stroke:none"
         id="text4922"><tspan
           x="0 203.16159 367.00159 527.56476 697.95837"
           y="0"
           sodipodi:role="line"
           id="tspan4924">HTTPS</tspan></text>
</g><g
       id="g4926"
       transform="scale(0.048828,0.048828)"><text
         transform="translate(1346.72,9833.5996)"
         style="font-variant:normal;font-weight:normal;font-size:327.67999268px;font-family:F2;-inkscape-font-specification:F2;writing-mode:lr-tb;fill:#ffffff;fill-opacity:1;fill-rule:nonzero;stroke:none"
         id="text4928"><tspan
           x="0 131.07199"
           y="0"
           sodipodi:role="line"
           id="tspan4930">To</tspan></text>
</g><g
       id="g4932"
       transform="scale(0.048828,0.048828)"><text
         transform="translate(1150.08,10226.9)"
         style="font-variant:normal;font-weight:normal;font-size:327.67999268px;font-family:F2;-inkscape-font-specification:F2;writing-mode:lr-tb;fill:#ffffff;fill-opacity:1;fill-rule:nonzero;stroke:none"
         id="text4934"><tspan
           x="0 203.16159 367.00159 527.56476"
           y="0"
           sodipodi:role="line"
           id="tspan4936">HTTP</tspan></text>
</g><g
       id="g4938"
       transform="scale(0.048828,0.048828)"><text
         transform="translate(1130.5601,10620.2)"
         style="font-variant:normal;font-weight:normal;font-size:327.67999268px;font-family:F2;-inkscape-font-specification:F2;writing-mode:lr-tb;fill:#ffffff;fill-opacity:1;fill-rule:nonzero;stroke:none"
         id="text4940"><tspan
           x="0 170.3936 278.52798 445.64478 586.54718"
           y="0"
           sodipodi:role="line"
           id="tspan4942">Proxy</tspan></text>
</g><g
       id="g4944"
       transform="translate(59.040001,441.76001)"><path
         d="m 0,0 0,-20.48 c 0,-0.800001 0.8,-1.44 1.6,-1.44 l 0.32,0 -1.44,1.44 0,-20.319999 3.04,0 0,20.319999 c 0,0.96 -0.8,1.600001 -1.6,1.600001 l -0.32,0 L 3.04,-20.48 3.04,0 0,0 Z m -2.56,-40.799999 c 0,-2.560002 2.08,-4.48 4.48,-4.48 2.56,0 4.48,1.919998 4.48,4.48 0,2.399997 -1.92,4.479999 -4.48,4.479999 -2.4,0 -4.48,-2.080002 -4.48,-4.479999 z"
         style="fill:#ff0000;fill-opacity:1;fill-rule:nonzero;stroke:none"
         id="path4946"
         inkscape:connector-curvature="0" /></g><g
       id="g4948"
       transform="translate(103.36,497.60001)"><path
         d="M 0,0 48.48,-1.28 48.32,-3.68 0,-2.4 0,0 Z m 41.919998,2.88 8.800003,-5.44 -9.120003,-4.96 C 41.119999,-7.84 40.32,-7.68 40,-7.04 c -0.32,0.48 0,1.28 0.48,1.6 l 7.36,4 0,-2.08 -7.200001,4.32 C 40.16,1.28 40,1.92 40.32,2.56 c 0.319999,0.48 1.119999,0.64 1.599998,0.32 z"
         style="fill:#ff0000;fill-opacity:1;fill-rule:nonzero;stroke:none"
         id="path4950"
         inkscape:connector-curvature="0" /></g><g
       id="g4952"
       transform="translate(154.08,506.39999)"><path
         d="m 0,0 -48.32,0 0,2.4 L 0,2.4 0,0 Z m -41.759998,-4.16 -8.960003,5.28 8.960003,5.28 C -41.119999,6.72 -40.48,6.56 -40,5.92 c 0.32,-0.48 0,-1.28 -0.48,-1.6 l 0,0 -7.2,-4.16 0,2.08 7.2,-4.32 c 0.48,-0.32 0.8,-0.96 0.48,-1.6 -0.48,-0.64 -1.119999,-0.8 -1.759998,-0.48 z"
         style="fill:#ff0000;fill-opacity:1;fill-rule:nonzero;stroke:none"
         id="path4954"
         inkscape:connector-curvature="0" /></g></g></svg>