<?xml version="1.0" encoding="UTF-8" standalone="no"?>
<!-- Created with Inkscape (http://www.inkscape.org/) -->

<svg
   xmlns:dc="http://purl.org/dc/elements/1.1/"
   xmlns:cc="http://creativecommons.org/ns#"
   xmlns:rdf="http://www.w3.org/1999/02/22-rdf-syntax-ns#"
   xmlns:svg="http://www.w3.org/2000/svg"
   xmlns="http://www.w3.org/2000/svg"
   xmlns:sodipodi="http://sodipodi.sourceforge.net/DTD/sodipodi-0.dtd"
   xmlns:inkscape="http://www.inkscape.org/namespaces/inkscape"
   id="svg4136"
   version="1.1"
   inkscape:version="0.91 r13725"
   xml:space="preserve"
   width="990"
   height="405"
   viewBox="0 0 990 405"
   sodipodi:docname="tunnel.svg"
   inkscape:export-filename="C:\Users\mmccool\Desktop\Smart Buildings\WoT_SS\tunnel.png"
   inkscape:export-xdpi="90"
   inkscape:export-ydpi="90"><metadata
     id="metadata4142"><rdf:RDF><cc:Work
         rdf:about=""><dc:format>image/svg+xml</dc:format><dc:type
           rdf:resource="http://purl.org/dc/dcmitype/StillImage" /><dc:title></dc:title></cc:Work></rdf:RDF></metadata><defs
     id="defs4140" /><sodipodi:namedview
     pagecolor="#ffffff"
     bordercolor="#666666"
     borderopacity="1"
     objecttolerance="10"
     gridtolerance="10"
     guidetolerance="10"
     inkscape:pageopacity="0"
     inkscape:pageshadow="2"
     inkscape:window-width="1920"
     inkscape:window-height="1017"
     id="namedview4138"
     showgrid="false"
     fit-margin-top="0"
     fit-margin-left="0"
     fit-margin-right="0"
     fit-margin-bottom="0"
     inkscape:zoom="1.1084967"
     inkscape:cx="495"
     inkscape:cy="202.5"
     inkscape:window-x="-8"
     inkscape:window-y="-8"
     inkscape:window-maximized="1"
     inkscape:current-layer="g4144" /><g
     id="g4144"
     inkscape:groupmode="layer"
     inkscape:label="tunnel"
     transform="matrix(0.9375,0,0,0.9375,0,-180)"><g
       id="g4146"><path
         d="m 0,192 1056,0 0,432 L 0,624 0,192 Z"
         style="fill:#ffffff;fill-opacity:1;fill-rule:nonzero;stroke:none"
         id="path4148"
         inkscape:connector-curvature="0" /></g><g
       id="g4150"
       transform="translate(1029.76,606.23999)"><path
         d="m 0,0 c 0,0.32 -0.32,0.8 -0.8,0.8 l -517.43999,0 c -0.47998,0 -0.79999,-0.48 -0.79999,-0.8 l 0,-356.32001 c 0,-0.47998 0.32001,-0.79999 0.79999,-0.79999 l 517.43999,0 c 0.48,0 0.8,0.32001 0.8,0.79999 L 0,0 Z m -1.6,-356.32001 0.8,0.80002 -517.43999,0 0.79999,-0.80002 0,356.32001 -0.79999,-0.8 517.43999,0 -0.8,0.8 0,-356.32001 z"
         style="fill:#385d8a;fill-opacity:1;fill-rule:nonzero;stroke:none"
         id="path4152"
         inkscape:connector-curvature="0" /></g><g
       id="g4154"
       transform="translate(824.15997,331.84)"><path
         d="m 0,0 c 0,-4.8 3.84,-8.64 8.64,-8.64 l 177.92,0 c 4.96,0 8.8,3.84 8.8,8.64 l 0,257.60001 c 0,4.79998 -3.84,8.79998 -8.8,8.79998 l -177.92,0 c -4.8,0 -8.64,-4 -8.64,-8.79998 L 0,0 Z"
         style="fill:#808080;fill-opacity:1;fill-rule:evenodd;stroke:none"
         id="path4156"
         inkscape:connector-curvature="0" /></g><g
       id="g4158"
       transform="scale(0.048828,0.048828)"><text
         transform="translate(18225.6,7025.4399)"
         style="font-variant:normal;font-weight:normal;font-size:327.67999268px;font-family:F1;-inkscape-font-specification:F1;writing-mode:lr-tb;fill:#000000;fill-opacity:1;fill-rule:nonzero;stroke:#000000;stroke-width:3.27699995;stroke-linecap:butt;stroke-linejoin:miter;stroke-miterlimit:10;stroke-dasharray:none;stroke-opacity:1"
         id="text4160"><tspan
           x="0 275.25119 445.64478 599.65436 665.19037 825.7536 996.14716 1068.2368 1235.3535 1389.3632"
           y="0"
           sodipodi:role="line"
           id="tspan4162">WoT Thing </tspan></text>
</g><g
       id="g4164"
       transform="scale(0.048828,0.048828)"><text
         transform="translate(17308,7418.7202)"
         style="font-variant:normal;font-weight:normal;font-size:327.67999268px;font-family:F1;-inkscape-font-specification:F1;writing-mode:lr-tb;fill:#000000;fill-opacity:1;fill-rule:nonzero;stroke:#000000;stroke-width:3.27699995;stroke-linecap:butt;stroke-linejoin:miter;stroke-miterlimit:10;stroke-dasharray:none;stroke-opacity:1"
         id="text4166"><tspan
           x="0 101.5808 304.7424 458.75198 563.60956 714.34241 861.7984 1022.3616 1087.8976 1258.2911 1431.9615 1602.3552 1710.4896 1776.0255 1913.6511 2087.3215 2251.1616 2356.019 2460.8767 2627.9937 2700.0833 2772.1729 2932.7358 3040.8704"
           y="0"
           sodipodi:role="line"
           id="tspan4168">(Garage door controller)</tspan></text>
</g><g
       id="g4170"
       transform="translate(824.15997,331.84)"><path
         d="m 0,0 c 0,-4.8 3.84,-8.64 8.64,-8.64 l 177.92,0 c 4.96,0 8.8,3.84 8.8,8.64 l 0,257.60001 c 0,4.79998 -3.84,8.79998 -8.8,8.79998 l -177.92,0 c -4.8,0 -8.64,-4 -8.64,-8.79998 L 0,0 Z"
         style="fill:#808080;fill-opacity:1;fill-rule:evenodd;stroke:none"
         id="path4172"
         inkscape:connector-curvature="0" /></g><g
       id="g4174"
       transform="scale(0.048828,0.048828)"><text
         transform="translate(18225.6,7025.4399)"
         style="font-variant:normal;font-weight:normal;font-size:327.67999268px;font-family:F1;-inkscape-font-specification:F1;writing-mode:lr-tb;fill:#000000;fill-opacity:1;fill-rule:nonzero;stroke:#000000;stroke-width:3.27699995;stroke-linecap:butt;stroke-linejoin:miter;stroke-miterlimit:10;stroke-dasharray:none;stroke-opacity:1"
         id="text4176"><tspan
           x="0 275.25119 445.64478 599.65436 665.19037 825.7536 996.14716 1068.2368 1235.3535 1389.3632"
           y="0"
           sodipodi:role="line"
           id="tspan4178">WoT Thing </tspan></text>
</g><g
       id="g4180"
       transform="scale(0.048828,0.048828)"><text
         transform="translate(17308,7418.7202)"
         style="font-variant:normal;font-weight:normal;font-size:327.67999268px;font-family:F1;-inkscape-font-specification:F1;writing-mode:lr-tb;fill:#000000;fill-opacity:1;fill-rule:nonzero;stroke:#000000;stroke-width:3.27699995;stroke-linecap:butt;stroke-linejoin:miter;stroke-miterlimit:10;stroke-dasharray:none;stroke-opacity:1"
         id="text4182"><tspan
           x="0 101.5808 304.7424 458.75198 563.60956 714.34241 861.7984 1022.3616 1087.8976 1258.2911 1431.9615 1602.3552 1710.4896 1776.0255 1913.6511 2087.3215 2251.1616 2356.019 2460.8767 2627.9937 2700.0833 2772.1729 2932.7358 3040.8704"
           y="0"
           sodipodi:role="line"
           id="tspan4184">(Garage door controller)</tspan></text>
</g><g
       id="g4186"
       transform="translate(832.96002,499.35999)"><path
         d="m 0,0 c 0,-3.52 2.88,-6.4 6.4,-6.4 l 76.960001,0 c 3.519996,0 6.400001,2.88 6.400001,6.4 l 0,82.400002 c 0,3.519996 -2.880005,6.400001 -6.400001,6.400001 l -76.960001,0 c -3.52,0 -6.4,-2.880005 -6.4,-6.400001 L 0,0 Z"
         style="fill:#00b050;fill-opacity:1;fill-rule:evenodd;stroke:none"
         id="path4188"
         inkscape:connector-curvature="0" /></g><g
       id="g4190"
       transform="scale(0.048828,0.048828)"><text
         transform="translate(17668.5,10498.9)"
         style="font-variant:normal;font-weight:normal;font-size:327.67999268px;font-family:F2;-inkscape-font-specification:F2;writing-mode:lr-tb;fill:#ffffff;fill-opacity:1;fill-rule:nonzero;stroke:none"
         id="text4192"><tspan
           x="0 278.52798 452.19839"
           y="0"
           sodipodi:role="line"
           id="tspan4194">WoT</tspan></text>
</g><g
       id="g4196"
       transform="scale(0.048828,0.048828)"><text
         transform="translate(17416.199,10892.2)"
         style="font-variant:normal;font-weight:normal;font-size:327.67999268px;font-family:F2;-inkscape-font-specification:F2;writing-mode:lr-tb;fill:#ffffff;fill-opacity:1;fill-rule:nonzero;stroke:none"
         id="text4198"><tspan
           x="0 81.919998 252.3136 360.448 524.28796 638.97601 734.00317 891.28955 1028.9152"
           y="0"
           sodipodi:role="line"
           id="tspan4200">Interface</tspan></text>
</g><g
       id="g4202"
       transform="translate(23.360001,214.24)"><path
         d="m 0,0 c 0,-1.76 1.44,-3.2 3.2,-3.2 l 161.44,0 c 1.75999,0 3.2,1.44 3.2,3.2 l 0,65.440002 c 0,1.759995 -1.44001,3.199997 -3.2,3.199997 l -161.44,0 c -1.76,0 -3.2,-1.440002 -3.2,-3.199997 L 0,0 Z"
         style="fill:#808080;fill-opacity:1;fill-rule:evenodd;stroke:none"
         id="path4204"
         inkscape:connector-curvature="0" /></g><g
       id="g4206"
       transform="scale(0.048828,0.048828)"><text
         transform="translate(1418.88,4695.6802)"
         style="font-variant:normal;font-weight:normal;font-size:327.67999268px;font-family:F3;-inkscape-font-specification:F3;writing-mode:lr-tb;fill:#000000;fill-opacity:1;fill-rule:nonzero;stroke:none"
         id="text4208"><tspan
           x="0 285.0816 462.02878 625.86877 694.68158 868.35199 950.27197 1032.192 1196.032 1369.7024 1484.3904"
           y="0"
           sodipodi:role="line"
           id="tspan4210">WoT Client </tspan></text>
</g><g
       id="g4212"
       transform="scale(0.048828,0.048828)"><text
         transform="translate(1530.24,5088.7998)"
         style="font-variant:normal;font-weight:normal;font-size:327.67999268px;font-family:F3;-inkscape-font-specification:F3;writing-mode:lr-tb;fill:#000000;fill-opacity:1;fill-rule:nonzero;stroke:none"
         id="text4214"><tspan
           x="0 101.5808 285.0816 399.76959 576.7168 819.20001 950.27197 1114.1119 1232.0768"
           y="0"
           sodipodi:role="line"
           id="tspan4216">(Browser)</tspan></text>
</g><g
       id="g4218"
       transform="translate(23.360001,214.24)"><path
         d="m 0,0 c 0,-1.76 1.44,-3.2 3.2,-3.2 l 161.44,0 c 1.75999,0 3.2,1.44 3.2,3.2 l 0,65.440002 c 0,1.759995 -1.44001,3.199997 -3.2,3.199997 l -161.44,0 c -1.76,0 -3.2,-1.440002 -3.2,-3.199997 L 0,0 Z"
         style="fill:#808080;fill-opacity:1;fill-rule:evenodd;stroke:none"
         id="path4220"
         inkscape:connector-curvature="0" /></g><g
       id="g4222"
       transform="scale(0.048828,0.048828)"><text
         transform="translate(1418.88,4695.6802)"
         style="font-variant:normal;font-weight:normal;font-size:327.67999268px;font-family:F3;-inkscape-font-specification:F3;writing-mode:lr-tb;fill:#000000;fill-opacity:1;fill-rule:nonzero;stroke:none"
         id="text4224"><tspan
           x="0 285.0816 462.02878 625.86877 694.68158 868.35199 950.27197 1032.192 1196.032 1369.7024 1484.3904"
           y="0"
           sodipodi:role="line"
           id="tspan4226">WoT Client </tspan></text>
</g><g
       id="g4228"
       transform="scale(0.048828,0.048828)"><text
         transform="translate(1530.24,5088.7998)"
         style="font-variant:normal;font-weight:normal;font-size:327.67999268px;font-family:F3;-inkscape-font-specification:F3;writing-mode:lr-tb;fill:#000000;fill-opacity:1;fill-rule:nonzero;stroke:none"
         id="text4230"><tspan
           x="0 101.5808 285.0816 399.76959 576.7168 819.20001 950.27197 1114.1119 1232.0768"
           y="0"
           sodipodi:role="line"
           id="tspan4232">(Browser)</tspan></text>
</g><g
       id="g4234"><path
         d="m 252.8,233.44 129.92,0 0,41.60001 -10.56,10.56 -119.36,0 0,-52.16001 z"
         style="fill:#4a7b7c;fill-opacity:1;fill-rule:evenodd;stroke:none"
         id="path4236"
         inkscape:connector-curvature="0" /></g><g
       id="g4238"><path
         d="m 372.16,285.60001 2.07999,-8.48001 8.48001,-2.07999 -10.56,10.56 z"
         style="fill:#3b6364;fill-opacity:1;fill-rule:evenodd;stroke:none"
         id="path4240"
         inkscape:connector-curvature="0" /></g><g
       id="g4242"
       transform="scale(0.048828,0.048828)"><text
         transform="translate(6422.5601,5213.4399)"
         style="font-variant:normal;font-weight:normal;font-size:327.67999268px;font-family:F1;-inkscape-font-specification:F1;writing-mode:lr-tb;fill:#ffffff;fill-opacity:1;fill-rule:nonzero;stroke:none"
         id="text4244"><tspan
           x="0 157.28639 327.67999 399.76959 570.16321"
           y="0"
           sodipodi:role="line"
           id="tspan4246">Thing</tspan></text>
</g><g
       id="g4248"
       transform="scale(0.048828,0.048828)"><text
         transform="translate(6032.6401,5606.5601)"
         style="font-variant:normal;font-weight:normal;font-size:327.67999268px;font-family:F1;-inkscape-font-specification:F1;writing-mode:lr-tb;fill:#ffffff;fill-opacity:1;fill-rule:nonzero;stroke:none"
         id="text4250"><tspan
           x="0 199.8848 360.448 488.24319 629.14557 740.55676 812.64636 979.76318 1087.8976 1159.9872 1330.3807"
           y="0"
           sodipodi:role="line"
           id="tspan4252">Description</tspan></text>
</g><g
       id="g4254"
       transform="translate(227.84,255.52)"><path
         d="M 0,0 C 1.12,-1.92 3.36,-2.56 5.28,-1.44 7.04,-0.48 7.68,1.92 6.72,3.68 5.6,5.6 3.2,6.24 1.44,5.12 -0.32,4.16 -0.96,1.76 0,0 Z"
         style="fill:#ffffff;fill-opacity:1;fill-rule:evenodd;stroke:none"
         id="path4256"
         inkscape:connector-curvature="0" /></g><g
       id="g4258"
       transform="translate(931.20001,498.56)"><path
         d="m 0,0 c 0,-3.04 2.56,-5.6 5.6,-5.6 l 67.999998,0 c 3.200005,0 5.599999,2.56 5.599999,5.6 l 0,83.839996 c 0,3.200005 -2.399994,5.760002 -5.599999,5.760002 l -67.999998,0 c -3.04,0 -5.6,-2.559997 -5.6,-5.760002 L 0,0 Z"
         style="fill:#595959;fill-opacity:1;fill-rule:evenodd;stroke:none"
         id="path4260"
         inkscape:connector-curvature="0" /></g><g
       id="g4262"
       transform="scale(0.048828,0.048828)"><text
         transform="translate(19218.4,10495.5)"
         style="font-variant:normal;font-weight:normal;font-size:327.67999268px;font-family:F2;-inkscape-font-specification:F2;writing-mode:lr-tb;fill:#ffffff;fill-opacity:1;fill-rule:nonzero;stroke:none"
         id="text4264"><tspan
           x="0 203.16159 317.84958 393.216 537.3952 701.23517 815.92316 888.01276 1078.0671 1248.4608"
           y="0"
           sodipodi:role="line"
           id="tspan4266">Driver API</tspan></text>
</g><g
       id="g4268"><path
         d="m 941.28003,525.76001 59.03997,0 0,54.39996 -59.03997,0 0,-54.39996 z"
         style="fill:#bfbfbf;fill-opacity:1;fill-rule:nonzero;stroke:none"
         id="path4270"
         inkscape:connector-curvature="0" /></g><g
       id="g4272"
       transform="translate(941.12,525.76001)"><path
         d="m 0,0 c 0,-0.16 0.16,-0.16 0.16,-0.16 l 59.040001,0 c 0,0 0.16,0 0.16,0.16 l 0,54.400002 c 0,0 -0.16,0.159999 -0.16,0.159999 l -59.040001,0 c 0,0 -0.16,-0.159999 -0.16,-0.159999 L 0,0 Z m 0.32,54.400002 -0.16,-0.16 59.040001,0 -0.32,0.16 0,-54.400002 0.32,0.16 L 0.16,0.16 0.32,0 l 0,54.400002 z"
         style="fill:#000000;fill-opacity:1;fill-rule:nonzero;stroke:none"
         id="path4274"
         inkscape:connector-curvature="0" /></g><g
       id="g4276"
       transform="scale(0.03418,0.03418)"><text
         transform="translate(28063.5,16089.1)"
         style="font-variant:normal;font-weight:normal;font-size:327.67999268px;font-family:F2;-inkscape-font-specification:F2;writing-mode:lr-tb;fill:#000000;fill-opacity:1;fill-rule:nonzero;stroke:none"
         id="text4278"><tspan
           x="0 134.3488 308.0192 445.64478 602.93121"
           y="0"
           sodipodi:role="line"
           id="tspan4280">Local</tspan></text>
</g><g
       id="g4282"
       transform="scale(0.03418,0.03418)"><text
         transform="translate(27749.801,16482.199)"
         style="font-variant:normal;font-weight:normal;font-size:327.67999268px;font-family:F2;-inkscape-font-specification:F2;writing-mode:lr-tb;fill:#000000;fill-opacity:1;fill-rule:nonzero;stroke:none"
         id="text4284"><tspan
           x="0 206.4384 363.72479 471.85919 645.5296 874.90558 1035.4688 1143.6031"
           y="0"
           sodipodi:role="line"
           id="tspan4286">Hardware</tspan></text>
</g><g
       id="g4288"
       transform="translate(832.96002,386.07999)"><path
         d="m 0,0 c 0,-3.04 2.4,-5.44 5.44,-5.44 l 166.56,0 c 3.03999,0 5.44,2.4 5.44,5.44 l 0,93.279999 c 0,3.040001 -2.40001,5.440002 -5.44,5.440002 l -166.56,0 C 2.4,98.720001 0,96.32 0,93.279999 L 0,0 Z"
         style="fill:#005a9c;fill-opacity:1;fill-rule:evenodd;stroke:none"
         id="path4290"
         inkscape:connector-curvature="0" /></g><g
       id="g4292"
       transform="scale(0.048828,0.048828)"><text
         transform="translate(18255,8942.4004)"
         style="font-variant:normal;font-weight:normal;font-size:327.67999268px;font-family:F1;-inkscape-font-specification:F1;writing-mode:lr-tb;fill:#ffffff;fill-opacity:1;fill-rule:nonzero;stroke:none"
         id="text4294"><tspan
           x="0 150.7328 222.82239 334.23358 589.82397 815.92316 969.9328 1078.0671"
           y="0"
           sodipodi:role="line"
           id="tspan4296">Firmware</tspan></text>
</g><g
       id="g4298"><path
         d="m 328,317.76001 -7.04001,0 0,18.88 -13.75998,0 0,-18.88 -6.88,0 L 314.07999,303.84 328,317.76001 Z"
         style="fill:#bfbfbf;fill-opacity:1;fill-rule:evenodd;stroke:none"
         id="path4300"
         inkscape:connector-curvature="0" /></g><g
       id="g4302"><path
         d="m 659.84003,333.60001 129.75995,0 0,41.6 -10.56,10.56 -119.19995,0 0,-52.16 z"
         style="fill:#4a7b7c;fill-opacity:1;fill-rule:evenodd;stroke:none"
         id="path4304"
         inkscape:connector-curvature="0" /></g><g
       id="g4306"><path
         d="M 779.03998,385.76001 781.12,377.28 l 8.47998,-2.07999 -10.56,10.56 z"
         style="fill:#3b6364;fill-opacity:1;fill-rule:evenodd;stroke:none"
         id="path4308"
         inkscape:connector-curvature="0" /></g><g
       id="g4310"
       transform="scale(0.048828,0.048828)"><text
         transform="translate(14758.7,7264.6401)"
         style="font-variant:normal;font-weight:normal;font-size:327.67999268px;font-family:F1;-inkscape-font-specification:F1;writing-mode:lr-tb;fill:#ffffff;fill-opacity:1;fill-rule:nonzero;stroke:none"
         id="text4312"><tspan
           x="0 157.28639 327.67999 399.76959 570.16321"
           y="0"
           sodipodi:role="line"
           id="tspan4314">Thing</tspan></text>
</g><g
       id="g4316"
       transform="scale(0.048828,0.048828)"><text
         transform="translate(14368.8,7657.9199)"
         style="font-variant:normal;font-weight:normal;font-size:327.67999268px;font-family:F1;-inkscape-font-specification:F1;writing-mode:lr-tb;fill:#ffffff;fill-opacity:1;fill-rule:nonzero;stroke:none"
         id="text4318"><tspan
           x="0 199.8848 360.448 488.24319 629.14557 740.55676 812.64636 979.76318 1087.8976 1159.9872 1330.3807"
           y="0"
           sodipodi:role="line"
           id="tspan4320">Description</tspan></text>
</g><g
       id="g4322"><path
         d="m 805.28003,346.39999 0,7.04001 18.87994,0 0,13.76001 -18.87994,0 0,6.87998 -13.76001,-13.75998 13.76001,-13.92002 z"
         style="fill:#bfbfbf;fill-opacity:1;fill-rule:evenodd;stroke:none"
         id="path4324"
         inkscape:connector-curvature="0" /></g><g
       id="g4326"
       transform="translate(296.95999,506.23999)"><path
         d="m 0,0 c 0,-15.04 14.56,-27.360001 32.639999,-27.360001 17.920002,0 32.480004,12.320001 32.480004,27.360001 0,15.2 -14.560002,27.52 -32.480004,27.52 C 14.56,27.52 0,15.2 0,0 Z"
         style="fill:#d9d9d9;fill-opacity:1;fill-rule:evenodd;stroke:none"
         id="path4328"
         inkscape:connector-curvature="0" /></g><g
       id="g4330"
       transform="translate(393.60001,499.51999)"><path
         d="m 0,0 c 0,-18.24 17.6,-33.119999 39.200001,-33.119999 21.599998,0 39.200001,14.879999 39.200001,33.119999 0,18.24 -17.600003,32.959999 -39.200001,32.959999 C 17.6,32.959999 0,18.24 0,0 Z"
         style="fill:#d9d9d9;fill-opacity:1;fill-rule:evenodd;stroke:none"
         id="path4332"
         inkscape:connector-curvature="0" /></g><g
       id="g4334"><path
         d="m 334.88,495.04001 96.63999,0 0,38.72 -96.63999,0 0,-38.72 z"
         style="fill:#d9d9d9;fill-opacity:1;fill-rule:nonzero;stroke:none"
         id="path4336"
         inkscape:connector-curvature="0" /></g><g
       id="g4338"
       transform="translate(336.79999,477.60001)"><path
         d="m 0,0 c 0,-19.68 18.879999,-35.84 42.400002,-35.84 23.519996,0 42.400001,16.16 42.400001,35.84 0,19.84 -18.880005,35.84 -42.400001,35.84 C 18.879999,35.84 0,19.84 0,0 Z"
         style="fill:#d9d9d9;fill-opacity:1;fill-rule:evenodd;stroke:none"
         id="path4340"
         inkscape:connector-curvature="0" /></g><g
       id="g4342"
       transform="scale(0.043945,0.043945)"><text
         transform="translate(8086.3999,10981)"
         style="font-variant:normal;font-weight:normal;font-size:327.67999268px;font-family:F2;-inkscape-font-specification:F2;writing-mode:lr-tb;fill:#ffffff;fill-opacity:1;fill-rule:nonzero;stroke:none"
         id="text4344"><tspan
           x="0 85.1968 252.3136 357.1712 521.01117 632.42236 806.09277 969.9328"
           y="0"
           sodipodi:role="line"
           id="tspan4346">Internet</tspan></text>
</g><g
       id="g4348"
       transform="scale(0.043945,0.043945)"><text
         transform="translate(16394.9,6156.7998)"
         style="font-variant:normal;font-weight:normal;font-size:327.67999268px;font-family:F4;-inkscape-font-specification:F4;writing-mode:lr-tb;fill:#000000;fill-opacity:1;fill-rule:nonzero;stroke:none"
         id="text4350"><tspan
           x="0 183.50079 363.72479 527.56476 711.06561 783.15521 874.90558 1055.1295 1238.6304 1330.3807 1559.7567 1739.9807 1848.1151"
           y="0"
           sodipodi:role="line"
           id="tspan4352">Local network</tspan></text>
</g><g
       id="g4354"
       transform="translate(32.32,420.32001)"><path
         d="m 0,0 c 0,-4.32 3.52,-7.84 7.84,-7.84 l 230.55999,0 C 242.72,-7.84 246.24,-4.32 246.24,0 l 0,160 c 0,4.32001 -3.52,7.84 -7.84001,7.84 L 7.84,167.84 C 3.52,167.84 0,164.32001 0,160 L 0,0 Z"
         style="fill:#808080;fill-opacity:1;fill-rule:evenodd;stroke:none"
         id="path4356"
         inkscape:connector-curvature="0" /></g><g
       id="g4358"
       transform="scale(0.048828,0.048828)"><text
         transform="translate(2205.28,8847.3604)"
         style="font-variant:normal;font-weight:normal;font-size:327.67999268px;font-family:F3;-inkscape-font-specification:F3;writing-mode:lr-tb;fill:#000000;fill-opacity:1;fill-rule:nonzero;stroke:none"
         id="text4360"><tspan
           x="0 180.224 344.064 609.4848 786.43201 897.8432 1061.6832 1133.7728 1300.8895 1477.8368 1595.8015 1707.2128 1867.776"
           y="0"
           sodipodi:role="line"
           id="tspan4362">Remote Portal</tspan></text>
</g><g
       id="g4364"
       transform="translate(32.32,420.32001)"><path
         d="m 0,0 c 0,-4.32 3.52,-7.84 7.84,-7.84 l 230.55999,0 C 242.72,-7.84 246.24,-4.32 246.24,0 l 0,160 c 0,4.32001 -3.52,7.84 -7.84001,7.84 L 7.84,167.84 C 3.52,167.84 0,164.32001 0,160 L 0,0 Z"
         style="fill:#808080;fill-opacity:1;fill-rule:evenodd;stroke:none"
         id="path4366"
         inkscape:connector-curvature="0" /></g><g
       id="g4368"
       transform="scale(0.048828,0.048828)"><text
         transform="translate(2205.28,8847.3604)"
         style="font-variant:normal;font-weight:normal;font-size:327.67999268px;font-family:F3;-inkscape-font-specification:F3;writing-mode:lr-tb;fill:#000000;fill-opacity:1;fill-rule:nonzero;stroke:none"
         id="text4370"><tspan
           x="0 180.224 344.064 609.4848 786.43201 897.8432 1061.6832 1133.7728 1300.8895 1477.8368 1595.8015 1707.2128 1867.776"
           y="0"
           sodipodi:role="line"
           id="tspan4372">Remote Portal</tspan></text>
</g><g
       id="g4374"
       transform="translate(525.28003,420.32001)"><path
         d="m 0,0 c 0,-4.32 3.52,-7.84 7.84,-7.84 l 230.72,0 c 4.32,0 7.83999,3.52 7.83999,7.84 l 0,160 c 0,4.32001 -3.51999,7.84 -7.83999,7.84 l -230.72,0 C 3.52,167.84 0,164.32001 0,160 L 0,0 Z"
         style="fill:#808080;fill-opacity:1;fill-rule:evenodd;stroke:none"
         id="path4376"
         inkscape:connector-curvature="0" /></g><g
       id="g4378"
       transform="scale(0.048828,0.048828)"><text
         transform="translate(12297.8,8847.3604)"
         style="font-variant:normal;font-weight:normal;font-size:327.67999268px;font-family:F3;-inkscape-font-specification:F3;writing-mode:lr-tb;fill:#000000;fill-opacity:1;fill-rule:nonzero;stroke:none"
         id="text4380"><tspan
           x="0 137.6256 314.57278 448.9216 609.4848 691.40479 766.77118 976.48639 1133.7728 1245.184 1405.7472 1648.2303 1802.24"
           y="0"
           sodipodi:role="line"
           id="tspan4382">Local Gateway</tspan></text>
</g><g
       id="g4384"
       transform="translate(525.28003,420.32001)"><path
         d="m 0,0 c 0,-4.32 3.52,-7.84 7.84,-7.84 l 230.72,0 c 4.32,0 7.83999,3.52 7.83999,7.84 l 0,160 c 0,4.32001 -3.51999,7.84 -7.83999,7.84 l -230.72,0 C 3.52,167.84 0,164.32001 0,160 L 0,0 Z"
         style="fill:#808080;fill-opacity:1;fill-rule:evenodd;stroke:none"
         id="path4386"
         inkscape:connector-curvature="0" /></g><g
       id="g4388"
       transform="scale(0.048828,0.048828)"><text
         transform="translate(12297.8,8847.3604)"
         style="font-variant:normal;font-weight:normal;font-size:327.67999268px;font-family:F3;-inkscape-font-specification:F3;writing-mode:lr-tb;fill:#000000;fill-opacity:1;fill-rule:nonzero;stroke:none"
         id="text4390"><tspan
           x="0 137.6256 314.57278 448.9216 609.4848 691.40479 766.77118 976.48639 1133.7728 1245.184 1405.7472 1648.2303 1802.24"
           y="0"
           sodipodi:role="line"
           id="tspan4392">Local Gateway</tspan></text>
</g><g
       id="g4394"
       transform="scale(0.043945,0.043945)"><text
         transform="translate(8956.6396,12047.7)"
         style="font-variant:normal;font-weight:normal;font-size:327.67999268px;font-family:F4;-inkscape-font-specification:F4;writing-mode:lr-tb;fill:#000000;fill-opacity:1;fill-rule:nonzero;stroke:none"
         id="text4396"><tspan
           x="0 91.750397 271.9744 455.47519 635.69916 819.20001"
           y="0"
           sodipodi:role="line"
           id="tspan4398">tunnel</tspan></text>
</g><g
       id="g4400"
       transform="translate(23.360001,360.95999)"><path
         d="M 0,0 C 0,-15.2 14.4,-27.360001 32,-27.360001 49.599998,-27.360001 63.84,-15.2 63.84,0 63.84,15.04 49.599998,27.360001 32,27.360001 14.4,27.360001 0,15.04 0,0 Z"
         style="fill:#d9d9d9;fill-opacity:1;fill-rule:evenodd;stroke:none"
         id="path4402"
         inkscape:connector-curvature="0" /></g><g
       id="g4404"
       transform="translate(118.08,354.07999)"><path
         d="M 0,0 C 0,-18.08 17.280001,-32.799999 38.400002,-32.799999 59.52,-32.799999 76.800003,-18.08 76.800003,0 76.800003,18.24 59.52,32.959999 38.400002,32.959999 17.280001,32.959999 0,18.24 0,0 Z"
         style="fill:#d9d9d9;fill-opacity:1;fill-rule:evenodd;stroke:none"
         id="path4406"
         inkscape:connector-curvature="0" /></g><g
       id="g4408"><path
         d="m 60.639999,349.60001 94.720001,0 0,38.72 -94.720001,0 0,-38.72 z"
         style="fill:#d9d9d9;fill-opacity:1;fill-rule:nonzero;stroke:none"
         id="path4410"
         inkscape:connector-curvature="0" /></g><g
       id="g4412"
       transform="translate(62.400002,332.32001)"><path
         d="m 0,0 c 0,-19.68 18.559999,-35.68 41.599998,-35.68 22.880005,0 41.599999,16 41.599999,35.68 0,19.84 -18.719994,35.68 -41.599999,35.68 C 18.559999,35.68 0,19.84 0,0 Z"
         style="fill:#d9d9d9;fill-opacity:1;fill-rule:evenodd;stroke:none"
         id="path4414"
         inkscape:connector-curvature="0" /></g><g
       id="g4416"
       transform="scale(0.043945,0.043945)"><text
         transform="translate(1824.16,7675.04)"
         style="font-variant:normal;font-weight:normal;font-size:327.67999268px;font-family:F2;-inkscape-font-specification:F2;writing-mode:lr-tb;fill:#ffffff;fill-opacity:1;fill-rule:nonzero;stroke:none"
         id="text4418"><tspan
           x="0 85.1968 252.3136 357.1712 521.01117 632.42236 806.09277 969.9328"
           y="0"
           sodipodi:role="line"
           id="tspan4420">Internet</tspan></text>
</g><g
       id="g4422"
       transform="translate(149.11999,398.72)"><path
         d="m 0,0 -0.48,-108.8 2.4,0 L 2.4,0 0,0 Z m -4.48,-102.08 5.28,-8.96 5.28,8.96 c 0.32,0.48 0.16,1.28 -0.48,1.6 -0.48,0.32 -1.28,0.16 -1.6,-0.48 l 0,0 -4.32,-7.2 2.08,0 -4.16,7.2 c -0.32,0.64 -0.96,0.8 -1.6,0.48 -0.64,-0.32 -0.8,-1.12 -0.48,-1.6 z"
         style="fill:#ff0000;fill-opacity:1;fill-rule:nonzero;stroke:none"
         id="path4424"
         inkscape:connector-curvature="0" /></g><g
       id="g4426"
       transform="translate(59.52,295.35999)"><path
         d="m 0,0 -0.16,101.92 2.4,0 L 2.4,0 0,0 Z M -4.16,95.199997 1.12,104.32 6.4,95.199997 C 6.72,94.720001 6.4,93.919998 5.92,93.599998 5.28,93.279999 4.64,93.440002 4.32,94.080002 L 0,101.28 l 2.08,0 -4.16,-7.199998 c -0.32,-0.64 -1.12,-0.800003 -1.6,-0.480004 -0.64,0.32 -0.8,1.120003 -0.48,1.599999 z"
         style="fill:#ff0000;fill-opacity:1;fill-rule:nonzero;stroke:none"
         id="path4428"
         inkscape:connector-curvature="0" /></g><g
       id="g4430"
       transform="translate(781.12,531.67999)"><path
         d="M 0,0 36,0.64 36,3.04 0,2.4 0,0 Z m 29.440001,-3.52 8.960001,5.44 -9.120001,4.96 C 28.639999,7.2 28,7.04 27.68,6.56 27.360001,5.92 27.52,5.12 28.16,4.8 l 7.200001,-4 0,2.08 L 28.16,-1.44 c -0.48,-0.32 -0.799999,-1.12 -0.32,-1.76 0.32,-0.48 0.959999,-0.64 1.600001,-0.32 z"
         style="fill:#ff0000;fill-opacity:1;fill-rule:nonzero;stroke:none"
         id="path4432"
         inkscape:connector-curvature="0" /></g><g
       id="g4434"
       transform="translate(818.88,553.91998)"><path
         d="m 0,0 -37.439999,0 0,2.4 L 0,2.4 0,0 Z M -30.879999,-4 -39.84,1.12 -30.879999,6.4 C -30.4,6.72 -29.6,6.56 -29.280001,6.08 c 0.320002,-0.64 0.16,-1.44 -0.479999,-1.76 l 0,0 -7.199999,-4.16 0,2.08 7.199999,-4.16 c 0.639999,-0.32 0.800001,-1.12 0.479999,-1.76 C -29.6,-4.16 -30.4,-4.32 -30.879999,-4 Z"
         style="fill:#ff0000;fill-opacity:1;fill-rule:nonzero;stroke:none"
         id="path4436"
         inkscape:connector-curvature="0" /></g><g
       id="g4438"
       transform="translate(240.48,253.75999)"><path
         d="m 0,0 -2.4,0 0,2.4 L 0,2.4 0,0 Z m -4.8,0 -2.4,0 0,2.4 2.4,0 0,-2.4 z m -4.8,0 -2.4,0 0,2.4 2.4,0 0,-2.4 z m -4.8,0 -2.399999,0 0,2.4 2.399999,0 0,-2.4 z M -19.200001,0 -21.6,0 l 0,2.4 2.399999,0 0,-2.4 z M -24,0 l -2.4,0 0,2.4 2.4,0 0,-2.4 z m -4.799999,0 -2.400002,0 0,2.4 2.400002,0 0,-2.4 z M -33.599998,0 -36,0 l 0,2.4 2.400002,0 0,-2.4 z M -29.92,-4 -39.040001,1.12 -29.92,6.4 c 0.479999,0.32 1.280001,0.16 1.6,-0.48 0.32,-0.48 0.16,-1.28 -0.479999,-1.6 l 0,0 L -36,0.16 l 0,2.08 7.200001,-4.32 C -28.16,-2.4 -28,-3.04 -28.32,-3.68 c -0.319999,-0.48 -1.120001,-0.8 -1.6,-0.32 z"
         style="fill:#000000;fill-opacity:1;fill-rule:nonzero;stroke:none"
         id="path4440"
         inkscape:connector-curvature="0" /></g><g
       id="g4442"
       transform="scale(0.043945,0.043945)"><text
         transform="translate(0,7059.6802)"
         style="font-variant:normal;font-weight:normal;font-size:327.67999268px;font-family:F2;-inkscape-font-specification:F2;writing-mode:lr-tb;fill:#000000;fill-opacity:1;fill-rule:nonzero;stroke:none"
         id="text4444"><tspan
           x="0 167.11679 252.3136 324.4032 494.79678 658.63678 829.0304 1002.7008 1166.5408 1287.7823 1399.1936"
           y="0"
           sodipodi:role="line"
           id="tspan4446">1. Request </tspan></text>
</g><g
       id="g4448"
       transform="scale(0.043945,0.043945)"><text
         transform="translate(3699.2,7085.1201)"
         style="font-variant:normal;font-weight:normal;font-size:327.67999268px;font-family:F2;-inkscape-font-specification:F2;writing-mode:lr-tb;fill:#000000;fill-opacity:1;fill-rule:nonzero;stroke:none"
         id="text4450"><tspan
           x="0 167.11679 252.3136 324.4032 494.79678 658.63678 786.43201 956.82556 1127.2191 1300.8895 1428.6848 1592.5248"
           y="0"
           sodipodi:role="line"
           id="tspan4452">2. Response </tspan></text>
</g><g
       id="g4454"
       transform="translate(484.32001,239.67999)"><path
         d="m 0,0 c 0,-0.8 0.64,-1.6 1.6,-1.6 l 31.519999,0 c 0.799999,0 1.600002,0.8 1.600002,1.6 l 0,369.12 c 0,0.95999 -0.800003,1.6 -1.600002,1.6 L 1.6,370.72 c -0.96,0 -1.6,-0.64001 -1.6,-1.6 L 0,0 Z"
         style="fill:#f79646;fill-opacity:1;fill-rule:evenodd;stroke:none"
         id="path4456"
         inkscape:connector-curvature="0" /></g><g
       id="g4458"
       transform="matrix(0,-0.043945,0.043945,0,0,0)"><text
         transform="translate(-10536.8,11559.8)"
         style="font-variant:normal;font-weight:normal;font-size:327.67999268px;font-family:F4;-inkscape-font-specification:F4;writing-mode:lr-tb;fill:#000000;fill-opacity:1;fill-rule:nonzero;stroke:none"
         id="text4460"><tspan
           x="0 235.9296 429.2608 622.59198 717.6192 937.16479 1025.6384 1225.5232 1300.8895 1409.0239 1592.5248 1821.9008 2002.1248 2074.2144"
           y="0"
           sodipodi:role="line"
           id="tspan4462">NAT &amp; Firewall</tspan></text>
</g><g
       id="g4464"><path
         d="m 660.96002,357.44 0,2.4 -2.40002,0 0,-2.4 2.40002,0 z m -3.04004,4 -2.39996,0 0,-2.39999 2.39996,0 0,2.39999 z m -4.79998,0 -2.40003,0 0,-2.39999 2.40003,0 0,2.39999 z m -4.79999,0 -2.40003,0 0,-2.39999 2.40003,0 0,2.39999 z m -4.79999,0 -2.40002,0 0,-2.39999 2.40002,0 0,2.39999 z m -4.80005,0 -2.39996,0 0,-2.39999 2.39996,0 0,2.39999 z m -4.79999,0 -2.39996,0 0,-2.39999 2.39996,0 0,2.39999 z m -4.79998,0 -2.40003,0 0,-2.39999 2.40003,0 0,2.39999 z m -4.96003,0 -2.39996,0 0,-2.39999 2.39996,0 0,2.39999 z m -4.79999,0 -2.39996,0 0,-2.39999 2.39996,0 0,2.39999 z m -4.79998,0 -2.40003,0 0,-2.39999 2.40003,0 0,2.39999 z m -4.79999,0 -2.40003,0 0,-2.39999 2.40003,0 0,2.39999 z m -4.79999,0 -2.40002,0 0,-2.39999 2.40002,0 0,2.39999 z m -4.80005,0 -2.39996,0 0,-2.39999 2.39996,0 0,2.39999 z m -4.79999,0 -2.39996,0 0,-2.39999 2.39996,0 0,2.39999 z m -4.79998,0 -2.40003,0 0,-2.39999 2.40003,0 0,2.39999 z m -4.79999,0 -2.40003,0 0,-2.39999 2.40003,0 0,2.39999 z m -4.79999,0 -2.40002,0 0,-2.39999 2.40002,0 0,2.39999 z m -4.80005,0 -2.39996,0 0,-2.39999 2.39996,0 0,2.39999 z m -4.79999,0 -2.39996,0 0,-2.39999 2.39996,0 0,2.39999 z m -4.79998,0 -2.40003,0 0,-2.39999 2.40003,0 0,2.39999 z m -4.79999,0 -2.40003,0 0,-2.39999 2.40003,0 0,2.39999 z m -4.79999,0 -2.40002,0 0,-2.39999 2.40002,0 0,2.39999 z m -4.80005,0 -2.39996,0 0,-2.39999 2.39996,0 0,2.39999 z m -4.79999,0 -2.39996,0 0,-2.39999 2.39996,0 0,2.39999 z m -4.79998,0 -2.40003,0 0,-2.39999 2.40003,0 0,2.39999 z m -4.79999,0 -2.40003,0 0,-2.39999 2.40003,0 0,2.39999 z m -4.79999,0 -2.40002,0 0,-2.39999 2.40002,0 0,2.39999 z m -4.80005,0 -2.39996,0 0,-2.39999 2.39996,0 0,2.39999 z m -4.95996,0 -2.40002,0 0,-2.39999 2.40002,0 0,2.39999 z m -4.79999,0 -2.40002,0 0,-2.39999 2.40002,0 0,2.39999 z m -4.80004,0 -2.39997,0 0,-2.39999 2.39997,0 0,2.39999 z m -4.79999,0 -2.4,0 0,-2.39999 2.4,0 0,2.39999 z m -4.79999,0 -2.39999,0 0,-2.39999 2.39999,0 0,2.39999 z m -4.79999,0 -2.40002,0 0,-2.39999 2.40002,0 0,2.39999 z m -4.80002,0 -2.39999,0 0,-2.39999 2.39999,0 0,2.39999 z m -4.79998,0 -2.4,0 0,-2.39999 2.4,0 0,2.39999 z m -4.80002,0 -2.4,0 0,-2.39999 2.4,0 0,2.39999 z m -4.79999,0 -2.39999,0 0,-2.39999 2.39999,0 0,2.39999 z m -4.79999,0 -2.40002,0 0,-2.39999 2.40002,0 0,2.39999 z m -4.80002,0 -2.39999,0 0,-2.39999 2.39999,0 0,2.39999 z m -4.79998,0 -2.4,0 0,-2.39999 2.4,0 0,2.39999 z m -4.80002,0 -2.4,0 0,-2.39999 2.4,0 0,2.39999 z m -4.79999,0 -2.39999,0 0,-2.39999 2.39999,0 0,2.39999 z m -4.79999,0 -2.40002,0 0,-2.39999 2.40002,0 0,2.39999 z m -4.80002,0 -2.39999,0 0,-2.39999 2.39999,0 0,2.39999 z m -4.79998,0 -2.4,0 0,-2.39999 2.4,0 0,2.39999 z m -4.80002,0 -2.4,0 0,-2.39999 2.4,0 0,2.39999 z m -4.79999,0 -2.39999,0 0,-2.39999 2.39999,0 0,2.39999 z m -4.79999,0 -2.40002,0 0,-2.39999 2.40002,0 0,2.39999 z m -4.96002,0 -2.39999,0 0,-2.39999 2.39999,0 0,2.39999 z m -4.79999,0 -2.39999,0 0,-2.39999 2.39999,0 0,2.39999 z m -4.79999,0 -2.40002,0 0,-2.39999 2.40002,0 0,2.39999 z m -4.80001,0 -2.4,0 0,-2.39999 2.4,0 0,2.39999 z m -4.79999,0 -2.4,0 0,-2.39999 2.4,0 0,2.39999 z m -4.80002,0 -2.39999,0 0,-2.39999 2.39999,0 0,2.39999 z m -4.79999,0 -2.39999,0 0,-2.39999 2.39999,0 0,2.39999 z m -4.79999,0 -2.40002,0 0,-2.39999 2.40002,0 0,2.39999 z m -4.80001,0 -2.4,0 0,-2.39999 2.4,0 0,2.39999 z m -4.79999,0 -2.4,0 0,-2.39999 2.4,0 0,2.39999 z m 3.67999,4.16001 -8.95999,-5.28 8.95999,-5.28 c 0.63999,-0.32001 1.28,-0.16001 1.60001,0.47998 0.32,0.48001 0.16,1.28 -0.32001,1.60001 l 0,0 -7.20001,4.16 0,-2.07999 7.20001,4.31998 c 0.48001,0.32001 0.64001,0.96002 0.32001,1.60001 -0.32001,0.64001 -0.96002,0.80001 -1.60001,0.48001 z"
         style="fill:#000000;fill-opacity:1;fill-rule:nonzero;stroke:none"
         id="path4466"
         inkscape:connector-curvature="0" /></g><g
       id="g4468"
       transform="translate(230.08,409.44)"><path
         d="M 0,0 C 0,-12 14.08,-21.76 31.200001,-21.76 48.32,-21.76 62.240002,-12 62.240002,0 62.240002,12.16 48.32,21.92 31.200001,21.92 14.08,21.92 0,12.16 0,0 Z"
         style="fill:#d9d9d9;fill-opacity:1;fill-rule:evenodd;stroke:none"
         id="path4470"
         inkscape:connector-curvature="0" /></g><g
       id="g4472"
       transform="translate(313.28,404.95999)"><path
         d="m 0,0 c 0,-14.4 16.799999,-26.24 37.439999,-26.24 20.640003,0 37.439998,11.84 37.439998,26.24 0,14.56 -16.799995,26.4 -37.439998,26.4 C 16.799999,26.4 0,14.56 0,0 Z"
         style="fill:#d9d9d9;fill-opacity:1;fill-rule:evenodd;stroke:none"
         id="path4474"
         inkscape:connector-curvature="0" /></g><g
       id="g4476"><path
         d="m 262.39999,400.48001 92.32001,0 0,30.87998 -92.32001,0 0,-30.87998 z"
         style="fill:#d9d9d9;fill-opacity:1;fill-rule:nonzero;stroke:none"
         id="path4478"
         inkscape:connector-curvature="0" /></g><g
       id="g4480"
       transform="translate(269.44,383.84)"><path
         d="M 0,0 C 0,-15.84 21.440001,-28.639999 48,-28.639999 74.400002,-28.639999 95.839996,-15.84 95.839996,0 95.839996,15.68 74.400002,28.48 48,28.48 21.440001,28.48 0,15.68 0,0 Z"
         style="fill:#d9d9d9;fill-opacity:1;fill-rule:evenodd;stroke:none"
         id="path4482"
         inkscape:connector-curvature="0" /></g><g
       id="g4484"
       transform="scale(0.043945,0.043945)"><text
         transform="translate(6790.2402,8643.5195)"
         style="font-variant:normal;font-weight:normal;font-size:327.67999268px;font-family:F2;-inkscape-font-specification:F2;writing-mode:lr-tb;fill:#ffffff;fill-opacity:1;fill-rule:nonzero;stroke:none"
         id="text4486"><tspan
           x="0 160.5632 330.95679 406.32318 579.99359 730.72638"
           y="0"
           sodipodi:role="line"
           id="tspan4488">Things</tspan></text>
</g><g
       id="g4490"
       transform="scale(0.043945,0.043945)"><text
         transform="translate(6622.7202,9036.6396)"
         style="font-variant:normal;font-weight:normal;font-size:327.67999268px;font-family:F2;-inkscape-font-specification:F2;writing-mode:lr-tb;fill:#ffffff;fill-opacity:1;fill-rule:nonzero;stroke:none"
         id="text4492"><tspan
           x="0 170.3936 249.03679 357.1712 521.01117 658.63678 763.49438 937.16479 1048.5759"
           y="0"
           sodipodi:role="line"
           id="tspan4494">directory</tspan></text>
</g><g
       id="g4496"><path
         d="m 584.79999,514.40002 -378.55999,0 0,12.79999 -25.76,-25.6 25.76,-25.76001 0,12.80001 378.55999,0 0,25.76001 z"
         style="fill:#4f81bd;fill-opacity:1;fill-rule:evenodd;stroke:none"
         id="path4498"
         inkscape:connector-curvature="0" /></g><g
       id="g4500"
       transform="translate(585.59998,515.20001)"><path
         d="m 0,0 -379.35999,0 0.79999,-0.8 0,14.72 -27.67999,-27.52 27.67999,-27.679999 0,14.72 -0.79999,-0.800002 379.35999,0 L 0,0 Z m -1.6,-26.559999 0.8,0.799999 -379.36,0 0,-13.600001 1.28,0.64 -25.60001,25.600001 0,-1.12 25.60001,25.6 -1.28,0.64 0,-13.6 379.36,0 -0.8,0.8 0,-25.759999 z"
         style="fill:#385d8a;fill-opacity:1;fill-rule:nonzero;stroke:none"
         id="path4502"
         inkscape:connector-curvature="0" /></g><g
       id="g4504"
       transform="translate(586.23999,492.48001)"><path
         d="m 0,0 95.839996,0 c 0.960007,0 1.600006,0.64 1.600006,1.44 l 0,37.600001 -1.600006,-1.600002 95.839994,0 0,3.040001 -95.839994,0 c -0.799995,0 -1.439994,-0.64 -1.439994,-1.439999 l 0,-37.600001 1.439994,1.6 L 0,3.04 0,0 Z m 191.67999,34.560001 c 2.56001,0 4.64002,1.919999 4.64002,4.48 0,2.399998 -2.08001,4.479999 -4.64002,4.479999 -2.39999,0 -4.47999,-2.080001 -4.47999,-4.479999 0,-2.560001 2.08,-4.48 4.47999,-4.48 z"
         style="fill:#ff0000;fill-opacity:1;fill-rule:nonzero;stroke:none"
         id="path4506"
         inkscape:connector-curvature="0" /></g><g
       id="g4508"
       transform="translate(589.12,495.67999)"><path
         d="m 0,0 -529.59998,0 c -0.80004,0 -1.44,-0.64 -1.44,-1.44 l 0,-93.439997 3.03998,0 -0.15997,93.439997 -1.44001,-1.6 L 0,-3.04 0,0 Z m -534.08002,-94.879997 c 0,-2.560005 2.08002,-4.480004 4.48004,-4.480004 2.56,0 4.47998,1.919999 4.47998,4.480004 0,2.399994 -1.91998,4.479995 -4.47998,4.479995 -2.40002,0 -4.48004,-2.080001 -4.48004,-4.479995 z"
         style="fill:#ff0000;fill-opacity:1;fill-rule:nonzero;stroke:none"
         id="path4510"
         inkscape:connector-curvature="0" /></g><g
       id="g4512"
       transform="translate(663.84003,506.39999)"><path
         d="m 0,0 0.8,0 c 0.8,0 1.44,0.64 1.44,1.44 l 0,47.199999 -1.44,-1.439998 113.76,0 0,3.040001 -113.76,0 c -0.8,0 -1.6,-0.640004 -1.6,-1.600003 L -0.8,1.44 0.8,2.88 0,2.88 0,0 Z m 114.56,44.16 c 2.56,0 4.64,2.080002 4.64,4.479999 0,2.560002 -2.08,4.64 -4.64,4.64 -2.4,0 -4.48,-2.079998 -4.48,-4.64 0,-2.399997 2.08,-4.479999 4.48,-4.479999 z"
         style="fill:#ff0000;fill-opacity:1;fill-rule:nonzero;stroke:none"
         id="path4514"
         inkscape:connector-curvature="0" /></g><g
       id="g4516"
       transform="translate(665.12,508.79999)"><path
         d="m 0,0 -515.35998,0 c -0.79999,0 -1.44001,-0.8 -1.44001,-1.6 l 0,-103.68 3.03998,0 0,103.68 -1.59997,-1.44 L 0,-3.04 0,0 Z m -519.67999,-105.44 c 0,-2.4 2.08001,-4.48 4.47998,-4.32 2.56,0 4.48001,2.08 4.48001,4.48 0,2.56 -2.07999,4.48 -4.63998,4.48 -2.40003,0 -4.48005,-2.08 -4.32001,-4.64 z"
         style="fill:#ff0000;fill-opacity:1;fill-rule:nonzero;stroke:none"
         id="path4518"
         inkscape:connector-curvature="0" /></g></g></svg>